<?xml version="1.0" encoding="UTF-8"?>
<svg width="45px" height="41px" viewBox="0 0 45 41" version="1.1" xmlns="http://www.w3.org/2000/svg" xmlns:xlink="http://www.w3.org/1999/xlink">
    <!-- Generator: Sketch 51.3 (57544) - http://www.bohemiancoding.com/sketch -->
    <title>Group 3</title>
    <desc>Created with Sketch.</desc>
    <defs>
        <polygon id="path-1" points="0 0.0009 45 0.0009 45 41.0049 0 41.0049"></polygon>
    </defs>
    <g id="Landing-page" stroke="none" stroke-width="1" fill="none" fill-rule="evenodd">
        <g id="Desktop-HD-Copy-13" transform="translate(-153.000000, -1829.000000)">
            <g id="Group-3" transform="translate(153.000000, 1829.000000)">
                <mask id="mask-2" fill="white">
                    <use xlink:href="#path-1"></use>
                </mask>
                <g id="Clip-2"></g>
                <path d="M36,22.536225 C35.99325,22.812975 35.99325,23.091975 36,23.368725 L36,22.536225 C36.045,21.568725 36.063,21.060225 36.351,20.758725 C36.65925,20.436975 37.3275,20.286225 38.25,20.250225 C39.53475,20.209725 40.5,19.215225 40.5,18.000225 L40.5,6.750225 C40.5,5.508225 39.49425,4.500225 38.25,4.500225 L18,4.500225 C16.758,4.500225 15.75,5.508225 15.75,6.750225 L11.25,6.750225 L11.25,4.500225 C11.25,2.013975 13.266,0.000225 15.75,0.000225 L40.5,0.000225 C42.984,0.000225 45,2.013975 45,4.500225 L45,20.250225 C45,22.734225 42.984,24.750225 40.5,24.750225 L40.5,29.796975 C40.47525,31.038975 39.4515,32.026725 38.20725,32.004225 C37.68075,31.995225 37.17225,31.799475 36.774,31.450725 L36,30.921975 L36,22.538475 L36,22.536225 Z M10.125,33.493725 C10.32975,33.493725 10.53225,33.437475 10.71,33.338475 L16.00875,29.652975 C16.38675,29.389725 16.8345,29.250225 17.2935,29.250225 L27,29.250225 C28.24425,29.250225 29.25,28.244475 29.25,27.000225 L29.25,15.750225 C29.25,14.508225 28.24425,13.500225 27,13.500225 L6.75,13.500225 C5.508,13.500225 4.5,14.508225 4.5,15.750225 L4.5,27.000225 C4.5,28.215225 5.46525,29.209725 6.75,29.250225 C7.6725,29.286225 8.34075,29.436975 8.649,29.756475 C8.937,30.060225 8.95275,30.568725 9,31.536225 C9.00675,31.677975 9.00675,31.934475 9,32.368725 C9,32.989725 9.504,33.493725 10.125,33.493725 Z M8.226,40.450725 C7.28775,41.269725 5.86575,41.168475 5.05125,40.232475 C4.70475,39.831975 4.509,39.323475 4.5,38.796975 L4.5,33.750225 C2.016,33.750225 0,31.734225 0,29.250225 L0,13.500225 C0,11.013975 2.016,9.000225 4.5,9.000225 L29.25,9.000225 C31.734,9.000225 33.75,11.013975 33.75,13.500225 L33.75,29.250225 C33.75,31.734225 31.734,33.750225 29.25,33.750225 L18.00675,33.750225 L8.226,40.450725 Z" id="Fill-1" fill="#FC5858" mask="url(#mask-2)"></path>
            </g>
        </g>
    </g>
</svg>