<?xml version="1.0" encoding="utf-8"?>
<!-- Generator: Adobe Illustrator 23.0.1, SVG Export Plug-In . SVG Version: 6.00 Build 0)  -->
<svg version="1.1" id="a07b0c17-3700-4c07-9cd3-d5e614437a2a"
	 xmlns="http://www.w3.org/2000/svg" xmlns:xlink="http://www.w3.org/1999/xlink" x="0px" y="0px" viewBox="0 0 938.7 836.1"
	 style="enable-background:new 0 0 938.7 836.1;" xml:space="preserve">
<style type="text/css">
	.st0{opacity:0.3;fill:#17CAD1;enable-background:new    ;}
	.st1{opacity:0.4;fill:#FFFFFF;enable-background:new    ;}
	.st2{fill:url(#SVGID_1_);}
	.st3{fill:url(#SVGID_2_);}
	.st4{fill:url(#SVGID_3_);}
	.st5{fill:#F2F2F2;}
	.st6{fill:#17CAD1;}
	.st7{fill:#3F3D56;}
	.st8{fill:#2F2E41;}
	.st9{fill:#FFB9B9;}
	.st10{fill:#D0CDE1;}
	.st11{opacity:0.1;enable-background:new    ;}
	.st12{fill:#575A89;}
</style>
<g>
	<polygon class="st0" points="880,176.3 880,136.4 856.4,136.4 856.4,176.3 828.3,176.3 828.3,114.6 807.8,114.6 807.8,68.5 
		791,68.5 791,21.2 756.1,21.2 756.1,68.5 739.2,68.5 739.2,114.6 719.3,114.6 719.3,59.2 708.1,59.2 708.1,31.1 701.2,31.1 
		701.2,59.2 661.4,59.2 661.4,236.1 630.8,236.1 630.8,217.4 612.1,217.4 612.1,236.1 581.6,236.1 581.6,176.3 526.8,176.3 
		526.8,136.4 503.1,136.4 503.1,176.3 501.9,176.3 501.9,252.9 476.9,252.9 476.9,208.1 447,208.1 447,252.9 422.1,252.9 
		422.1,114.6 402.8,114.6 402.8,68.5 331.8,68.5 331.8,114.6 313.1,114.6 313.1,358.2 422.1,358.2 501.9,358.2 581.6,358.2 
		661.4,358.2 719.3,358.2 828.3,358.2 908.1,358.2 908.1,176.3 	"/>
	<rect x="324.9" y="128.9" class="st1" width="26.2" height="15"/>
	<rect x="383.5" y="128.9" class="st1" width="26.2" height="15"/>
	<rect x="324.9" y="158.2" class="st1" width="26.2" height="15"/>
	<rect x="383.5" y="158.2" class="st1" width="26.2" height="15"/>
	<rect x="324.9" y="187.5" class="st1" width="26.2" height="15"/>
	<rect x="383.5" y="187.5" class="st1" width="26.2" height="15"/>
	<rect x="324.9" y="216.8" class="st1" width="26.2" height="15"/>
	<rect x="383.5" y="216.8" class="st1" width="26.2" height="15"/>
	<rect x="324.9" y="246.1" class="st1" width="26.2" height="15"/>
	<rect x="383.5" y="246.1" class="st1" width="26.2" height="15"/>
	<rect x="324.9" y="275.4" class="st1" width="26.2" height="15"/>
	<rect x="383.5" y="275.4" class="st1" width="26.2" height="15"/>
	<rect x="324.9" y="304.6" class="st1" width="26.2" height="15"/>
	<rect x="383.5" y="304.6" class="st1" width="26.2" height="15"/>
	<rect x="431.5" y="267.9" class="st1" width="61.1" height="7.5"/>
	<rect x="431.5" y="279.1" class="st1" width="61.1" height="7.5"/>
	<rect x="431.5" y="290.3" class="st1" width="61.1" height="7.5"/>
	<rect x="591" y="271.6" class="st1" width="61.1" height="7.5"/>
	<rect x="591" y="282.8" class="st1" width="61.1" height="7.5"/>
	<rect x="591" y="294" class="st1" width="61.1" height="7.5"/>
	<rect x="431.5" y="301.5" class="st1" width="61.1" height="7.5"/>
	<rect x="431.5" y="312.7" class="st1" width="61.1" height="7.5"/>
	<rect x="431.5" y="323.9" class="st1" width="61.1" height="7.5"/>
	<rect x="514.9" y="190.6" class="st1" width="16.8" height="21.8"/>
	<rect x="551.7" y="190.6" class="st1" width="16.8" height="21.8"/>
	<rect x="514.9" y="225.5" class="st1" width="16.8" height="21.8"/>
	<rect x="551.7" y="225.5" class="st1" width="16.8" height="21.8"/>
	<rect x="514.9" y="260.4" class="st1" width="16.8" height="21.8"/>
	<rect x="551.7" y="260.4" class="st1" width="16.8" height="21.8"/>
	<rect x="514.9" y="295.3" class="st1" width="16.8" height="21.8"/>
	<rect x="551.7" y="295.3" class="st1" width="16.8" height="21.8"/>
	<rect x="661.4" y="73.5" class="st1" width="22.4" height="28.7"/>
	<rect x="661.4" y="114.6" class="st1" width="22.4" height="28.7"/>
	<rect x="661.4" y="155.7" class="st1" width="22.4" height="28.7"/>
	<rect x="661.4" y="196.8" class="st1" width="22.4" height="28.7"/>
	<rect x="661.4" y="238" class="st1" width="22.4" height="28.7"/>
	<rect x="661.4" y="279.1" class="st1" width="22.4" height="28.7"/>
	<rect x="732.1" y="132.1" class="st1" width="83.5" height="24.3"/>
	<rect x="732.4" y="184.4" class="st1" width="83.5" height="24.3"/>
	<rect x="732.7" y="236.7" class="st1" width="83.5" height="24.3"/>
	<rect x="733" y="289.1" class="st1" width="83.5" height="24.3"/>
	<rect x="331.8" y="81.6" class="st1" width="11.2" height="23.7"/>
	<rect x="880" y="190.6" class="st1" width="28" height="36.1"/>
	<rect x="880" y="243" class="st1" width="28" height="36.1"/>
	<rect x="880" y="295.3" class="st1" width="28" height="36.1"/>
	
		<linearGradient id="SVGID_1_" gradientUnits="userSpaceOnUse" x1="682.5414" y1="511.1752" x2="683.2828" y2="511.1752" gradientTransform="matrix(1 0 0 -1 -122.5 754.5191)">
		<stop  offset="0" style="stop-color:#808080;stop-opacity:0.25"/>
		<stop  offset="0.54" style="stop-color:#808080;stop-opacity:0.12"/>
		<stop  offset="1" style="stop-color:#808080;stop-opacity:0.1"/>
	</linearGradient>
	<path class="st2" d="M560.8,243.1c-0.5,0.3-0.7,0.5-0.7,0.5C560.3,243.5,560.6,243.3,560.8,243.1z"/>
	
		<linearGradient id="SVGID_2_" gradientUnits="userSpaceOnUse" x1="683.1208" y1="510.5895" x2="683.8685" y2="510.5895" gradientTransform="matrix(1 0 0 -1 -122.5 754.5191)">
		<stop  offset="0" style="stop-color:#808080;stop-opacity:0.25"/>
		<stop  offset="0.54" style="stop-color:#808080;stop-opacity:0.12"/>
		<stop  offset="1" style="stop-color:#808080;stop-opacity:0.1"/>
	</linearGradient>
	<path class="st3" d="M561.4,243.7c-0.5,0.3-0.7,0.5-0.7,0.5C560.9,244.1,561.1,243.9,561.4,243.7z"/>
	
		<linearGradient id="SVGID_3_" gradientUnits="userSpaceOnUse" x1="683.1208" y1="511.1752" x2="683.8685" y2="511.1752" gradientTransform="matrix(1 0 0 -1 -122.5 754.5191)">
		<stop  offset="0" style="stop-color:#808080;stop-opacity:0.25"/>
		<stop  offset="0.54" style="stop-color:#808080;stop-opacity:0.12"/>
		<stop  offset="1" style="stop-color:#808080;stop-opacity:0.1"/>
	</linearGradient>
	<path class="st4" d="M561.4,243.1c-0.5,0.3-0.7,0.5-0.7,0.5C560.9,243.5,561.1,243.3,561.4,243.1z"/>
</g>
<path class="st5" d="M439.3,221.8v-18.3h-56v18.3h-26v-72.3h-25v-28h-56v28h-26V263c-3.8-4.7-7.8-9.2-12.1-13.5c0,0,0,0-0.1,0.1
	l0-0.1l0,0.1c-2.1,2-30.1,29.7-30.1,51.6c0,21.2,11.7,29.5,26.8,30.6l-1.1,20.9h3.1L237,332c0.4,0,0.8,0,1.2,0
	c4.1,0.1,8.2-0.5,12.1-1.7v27.3h214V221.8H439.3z"/>
<ellipse class="st5" cx="176.5" cy="411.8" rx="126.5" ry="11.7"/>
<ellipse class="st5" cx="854.2" cy="532.9" rx="56.4" ry="5.2"/>
<ellipse class="st5" cx="257.8" cy="487" rx="56.4" ry="5.2"/>
<path class="st6" d="M878.2,512c0,14.6-8.7,19.7-19.4,19.7c-0.2,0-0.5,0-0.7,0c-0.5,0-1,0-1.5-0.1c-9.7-0.7-17.1-6-17.1-19.6
	c0-14,17.9-31.7,19.3-33.1l0,0c0.1-0.1,0.1-0.1,0.1-0.1S878.2,497.4,878.2,512z"/>
<path class="st7" d="M858.2,529.5l7.1-9.9l-7.1,11l0,1.1c-0.5,0-1,0-1.5-0.1l0.8-14.6l0-0.1l0,0l0.1-1.4l-7.1-11l7.1,10l0,0.3
	l0.6-11l-6.1-11.4l6.2,9.4l0.6-22.9l0-0.1v0.1l-0.1,18l6.1-7.1l-6.1,8.7l-0.2,9.9l5.7-9.5l-5.7,10.9l-0.1,5.5l8.2-13.2l-8.3,15.1
	L858.2,529.5z"/>
<ellipse class="st5" cx="105.2" cy="713.1" rx="105.2" ry="9.7"/>
<path class="st6" d="M150,674.1c0,27.2-16.2,36.7-36.1,36.7c-0.5,0-0.9,0-1.4,0c-0.9,0-1.8-0.1-2.7-0.1c-18-1.3-32-11.3-32-36.6
	c0-26.2,33.5-59.2,36-61.7l0,0c0.1-0.1,0.1-0.1,0.1-0.1S150,646.9,150,674.1z"/>
<path class="st7" d="M112.6,706.6l13.2-18.5l-13.2,20.5l0,2.1c-0.9,0-1.8-0.1-2.7-0.1l1.4-27.2l0-0.2l0,0l0.1-2.6l-13.3-20.5
	l13.3,18.6l0,0.5l1.1-20.6l-11.4-21.2l11.5,17.6l1.1-42.6l0-0.1v0.1l-0.2,33.6l11.3-13.3l-11.4,16.2l-0.3,18.4l10.6-17.7L113.2,670
	l-0.2,10.2l15.3-24.6L113,683.8L112.6,706.6z"/>
<path class="st6" d="M320,282c0,57.4-34.1,77.5-76.2,77.5s-76.2-20.1-76.2-77.5s76.2-130.5,76.2-130.5S320,224.6,320,282z"/>
<polygon class="st7" points="240.9,350.7 241.7,302.6 274.2,243.2 241.8,295.1 242.2,273.5 264.6,230.5 242.3,267.8 242.3,267.8 
	242.9,228.9 266.9,194.7 243,222.8 243.4,151.5 240.9,245.9 241.1,242 216.7,204.7 240.7,249.5 238.5,292.9 238.4,291.7 
	210.3,252.4 238.3,295.8 238,301.2 238,301.3 238,301.7 232.2,411.9 239.9,411.9 240.9,355 268.8,311.7 "/>
<g>
	<path class="st6" d="M186.2,282c0,57.4-34.1,77.5-76.2,77.5S33.7,339.4,33.7,282S110,151.5,110,151.5S186.2,224.6,186.2,282z"/>
	<polygon class="st7" points="107.2,350.7 108,302.6 140.5,243.2 108.1,295.1 108.5,273.5 130.9,230.5 108.6,267.8 108.6,267.8 
		109.2,228.9 133.2,194.7 109.3,222.8 109.7,151.5 107.2,245.9 107.4,242 83,204.7 107,249.5 104.8,292.9 104.7,291.7 76.6,252.4 
		104.6,295.8 104.3,301.2 104.3,301.3 104.3,301.7 98.5,411.9 106.2,411.9 107.2,355 135.1,311.7 	"/>
</g>
<g>
	<path class="st6" d="M850.1,255.5c0,57.4-34.1,77.5-76.2,77.5s-76.2-20.1-76.2-77.5S773.8,125,773.8,125S850.1,198,850.1,255.5z"/>
	<polygon class="st7" points="771,324.2 771.8,276.1 804.3,216.6 771.9,268.6 772.3,246.9 794.7,203.9 772.4,241.2 772.4,241.2 
		773,202.4 797,168.1 773.1,196.2 773.5,125 771,219.3 771.2,215.4 746.9,178.1 770.8,222.9 768.6,266.3 768.5,265.2 740.4,225.9 
		768.4,269.2 768.1,274.7 768.1,274.7 768.1,275.2 762.3,385.3 770,385.3 771,328.4 798.9,285.2 	"/>
</g>
<path class="st5" d="M289,232.1c0,77.7-46.2,104.8-103.1,104.8S82.7,309.8,82.7,232.1S185.9,55.7,185.9,55.7S289,154.5,289,232.1z"
	/>
<polygon class="st7" points="182.1,325 183.2,260 227.1,179.6 183.3,249.8 183.8,220.6 214.1,162.4 183.9,212.9 183.9,212.9 
	184.8,160.3 217.2,114 184.9,152.1 185.4,55.7 182.1,183.3 182.4,178 149.4,127.5 181.8,188.1 178.8,246.8 178.7,245.2 140.7,192.1 
	178.6,250.7 178.2,258.1 178.1,258.2 178.1,258.8 170.3,407.7 180.8,407.7 182,330.8 219.8,272.3 "/>
<path class="st7" d="M270.8,475.6c0,1.5-0.2,3-0.7,4.4c-0.7,2-1.9,3.8-3.5,5.3c-1.7,1.5-3.7,2.6-5.9,3c-0.9,0.2-1.9,0.3-2.8,0.3
	c-2.4,0-4.7-0.6-6.7-1.9c-1.9-1.1-3.4-2.7-4.5-4.6c-3.6-6.2-1.4-14.2,4.8-17.8c6.2-3.6,14.2-1.4,17.8,4.8
	C270.2,471.1,270.8,473.3,270.8,475.6L270.8,475.6z"/>
<polygon class="st5" points="248,467.1 249.2,466.9 251.4,469.8 250,473.2 246.4,473.7 245.3,472.2 "/>
<polygon class="st5" points="255.3,480.9 251.7,481.3 249.5,478.4 250.9,475.1 254.5,474.6 256.7,477.5 "/>
<path class="st5" d="M252,484.6l-0.9,2.1c-1.9-1.1-3.4-2.7-4.5-4.6l3.2-0.4L252,484.6z"/>
<polygon class="st5" points="259.5,470.8 255.8,471.3 253.6,468.4 255,465 258.7,464.5 260.9,467.5 "/>
<polygon class="st5" points="264.8,478.5 261.2,479 258.9,476.1 260.4,472.7 264,472.2 266.2,475.1 "/>
<path class="st5" d="M261.5,486.4l-0.8,1.9c-0.9,0.2-1.9,0.3-2.8,0.3c-1,0-1.9-0.1-2.9-0.3l-0.8-1l1.4-3.4l3.6-0.5L261.5,486.4z"/>
<path class="st5" d="M269.4,469.7l-3.5,0.4l-2.2-2.9l1.1-2.6C266.7,465.8,268.3,467.6,269.4,469.7z"/>
<path class="st5" d="M270.1,480c-0.7,2-1.9,3.8-3.5,5.3l-1.1-1.5l1.4-3.4L270.1,480z"/>
<ellipse class="st5" cx="546.7" cy="821.8" rx="243" ry="14.2"/>
<polygon class="st7" points="394.6,252 420.2,212.9 486.7,328.1 461.1,367.1 "/>
<polygon class="st6" points="412.4,275.1 432.7,245.4 433.2,246.2 412.9,276 "/>
<polygon class="st6" points="418.3,283.4 438.6,253.6 439.1,254.5 418.9,284.3 "/>
<polygon class="st6" points="422.3,290.4 442.6,260.6 443.1,261.5 422.9,291.3 "/>
<polygon class="st6" points="428.3,299.4 448.6,269.6 449.1,270.5 428.9,300.3 "/>
<polygon class="st6" points="437.3,312.4 457.6,282.6 458.1,283.5 437.9,313.3 "/>
<path class="st8" d="M611,370.9c0,0,25.7-12.4,44.1-7.8L611,244.3v-12.2l62.4,148.4l0,0c15.6,29.4,35.3,96.4,1.7,101.8
	c-38.1,6.1-106.8,29-106.8,29L553,378.5L611,370.9z"/>
<path class="st9" d="M460.8,331.2c0,0-41.2-51.9-51.9-33.6s47.9,49.1,47.9,49.1L460.8,331.2z"/>
<path class="st10" d="M474.5,332.8l-16.8-9.2c0,0-10.7,27.5-10.7,32s16.8,6.1,16.8,6.1L474.5,332.8z"/>
<ellipse transform="matrix(0.1735 -0.9848 0.9848 0.1735 270.5928 676.8359)" class="st9" cx="538.5" cy="177.2" rx="39.7" ry="39.7"/>
<path class="st9" d="M569.1,172.6c0,0,16.8,50.3,29,53.4s-47.3,25.9-47.3,25.9s-18.3-42.7-27.5-53.4S569.1,172.6,569.1,172.6z"/>
<path class="st11" d="M664.4,467c32.9-5.3,14.7-69.5-0.7-99.8c1.4,1.1,2.6,2.3,3.7,3.7c15.3,19.8,45.8,105.2,7.6,111.3
	s-106.8,29-106.8,29l-2.1-18.1C585.8,486.9,634.5,471.8,664.4,467z"/>
<path class="st8" d="M717,729.3c0,0,38.1,30.5,35.1,33.6s-35.1,51.9-62.5,56.4s-39.7,4.6-39.7,0s7.6-15.3,21.4-19.8
	s15.3-35.1,13.7-41.2S717,729.3,717,729.3z"/>
<path class="st8" d="M602.6,502.1L627,616.5c0,0,100.7,112.9,97.6,114.4s-33.6,32-39.7,32s-111.3-119-111.3-119l-38.1-99.1
	L602.6,502.1z"/>
<path class="st11" d="M602.6,502.1L627,616.5c0,0,100.7,112.9,97.6,114.4s-33.6,32-39.7,32s-111.3-119-111.3-119l-38.1-99.1
	L602.6,502.1z"/>
<path class="st8" d="M627,465.5c0,0-12.2,51.9-45.8,86.9s-48.8,106.8-48.8,106.8l-33.6,143.4c0,0-59.5-7.6-56.4-22.9l32-126.6
	c0,0,36.6-175.4,56.4-187.6S627,465.5,627,465.5z"/>
<path class="st8" d="M495.8,790.3c0,0,9.2,29,3.1,32s-114.4,9.2-120.5-12.2c0,0-3.1-10.7,21.4-10.7c24.4,0,50.3-22.9,50.3-22.9
	L495.8,790.3z"/>
<path class="st12" d="M541.6,245.8c0,0,39.7-39.7,50.3-36.6s10.7,18.3,10.7,18.3s33.6,4.6,30.5,114.4s27.5,122,16.8,128.1
	s-132.7,33.6-137.3,6.1s-3.1-132.7,9.2-166.2S549.2,255,541.6,245.8z"/>
<path class="st12" d="M591.9,255c0,0,45.8,21.4,19.8,62.5s-45.8,85.4-73.2,83.9S468.4,374,456.2,374s4.6-44.2,13.7-45.8
	s51.9,24.4,51.9,24.4S537,248.9,591.9,255z"/>
<path class="st8" d="M561.4,181.6c-3.4-0.2-6.7,0.9-10,1.4c-12,1.6-24.5-7.1-27.2-19c-0.2-1.6-0.7-3.1-1.4-4.5
	c-1.8-3-6.1-3.6-9.5-2.9s-6.8,2.3-10.3,2.5c-5.5,0.3-10.7-3.1-13.6-7.7s-3.7-10.3-3.3-15.8l2.6,2.7c1.1-2.3,1.5-4.8,1.2-7.2
	c2.8-0.8,5.8,0,7.9,2c2.3,0.2,0.6-4.3,2.3-5.8c0.7-0.7,1.8-0.5,2.8-0.5c4.9,0,8.9-3.7,12.8-6.7c6.7-5.2,14.5-8.8,22.9-10.4
	c5.5-1.1,11.4-1.3,16.7,0.8c4.3,1.7,7.9,4.8,11.3,8c8.2,7.9,15.5,17.2,18.9,28.1c2.8,8.9,2.9,18.5,0.2,27.4
	c-1.4,4.7-5.5,20.6-11.6,21C566.4,195.4,570.9,182.2,561.4,181.6z"/>
<path class="st5" d="M855.6,252.7c0,0-0.1,0.1-0.2,0.2l0-0.2l0,0.2c-2.5,2.5-30.7,30.2-41.6,58.4c-3.6-4-6.2-6.5-6.2-6.5
	s0,0-0.1,0.1l0-0.1l0,0.1c-2.1,2-30.1,29.7-30.1,51.6c0,21.2,11.7,29.5,26.8,30.6L803,408h3.1l0.3-20.8c0.4,0,0.8,0,1.2,0
	c11.1,0,20.8-3.5,26.1-12.6c5.3,2.1,10.9,3.3,16.6,3.7l-1.7,31.9h4.7l0.5-31.7c0.6,0,1.2,0,1.8,0c25.5,0,46.1-12.1,46.1-46.8
	S855.6,252.7,855.6,252.7z"/>
</svg>
