<?xml version="1.0" encoding="UTF-8"?>
<svg width="184px" height="154px" viewBox="0 0 184 154" version="1.1" xmlns="http://www.w3.org/2000/svg" xmlns:xlink="http://www.w3.org/1999/xlink">
    <!-- Generator: Sketch 51.3 (57544) - http://www.bohemiancoding.com/sketch -->
    <title>”</title>
    <desc>Created with Sketch.</desc>
    <defs></defs>
    <g id="Landing-page" stroke="none" stroke-width="1" fill="none" fill-rule="evenodd" opacity="0.0534040179">
        <g id="Artboard" transform="translate(-296.000000, -156.000000)" fill="#000000">
            <path d="M400.3,195.2 C400.3,173.5 416.4,156 438.1,156 C461.9,156 479.4,172.1 479.4,198 C479.4,247.7 455.6,283.4 425.5,310 L399.6,284.8 C411.5,275.7 430.4,254.7 433.9,233.7 C412.9,230.9 400.3,213.4 400.3,195.2 Z M296.7,195.2 C296.7,173.5 312.8,156 334.5,156 C358.3,156 375.8,172.1 375.8,198 C375.8,247.7 352,283.4 321.9,310 L296,284.8 C307.9,275.7 326.8,254.7 330.3,233.7 C309.3,230.9 296.7,213.4 296.7,195.2 Z" id="”"></path>
        </g>
    </g>
</svg>