<?xml version="1.0" encoding="utf-8"?>
<!-- Generator: Adobe Illustrator 23.0.1, SVG Export Plug-In . SVG Version: 6.00 Build 0)  -->
<svg version="1.1" id="Calque_1" xmlns="http://www.w3.org/2000/svg" xmlns:xlink="http://www.w3.org/1999/xlink" x="0px" y="0px"
	 viewBox="0 0 1420 830" style="enable-background:new 0 0 1420 830;" xml:space="preserve">
<style type="text/css">
	.st0{opacity:0.1;fill:#17CAD1;enable-background:new    ;}
	.st1{display:none;fill:#17CAD1;}
	.st2{opacity:0.1;enable-background:new    ;}
	.st3{fill:#FFFFFF;}
	.st4{fill:#17CAD1;}
	.st5{opacity:0.3;fill:#17CAD1;enable-background:new    ;}
	.st6{opacity:0.3;enable-background:new    ;}
	.st7{fill:url(#SVGID_1_);}
	.st8{fill:#A5636D;}
	.st9{opacity:5.000000e-02;enable-background:new    ;}
	.st10{fill:#BEBED0;}
	.st11{fill:#5C5C8E;}
	.st12{opacity:0.1;}
	.st13{fill:#F7CDDD;}
	.st14{fill:#4C3E42;}
	.st15{fill:#FC5858;}
	.st16{opacity:0.1;fill:#FFFFFF;enable-background:new    ;}
	.st17{fill:#EFC8C4;}
	.st18{fill:#727A9C;}
	.st19{fill:#3ACC6C;}
</style>
<path class="st0" d="M479.9,41.9C520.7,5.2,584.8-2.3,643.1,0.6c183.3,9.2,348.8,98.6,491.9,199.6c51.8,36.6,102.8,76.1,136.5,126.4
	c68.5,102.6,48.1,244.7-47.1,329.2c-32.4,28.8-71.7,50.8-112,70.3c-71.7,34.7-149,62.6-230.4,70.5c-58,5.6-116.7,1-174.4-6.9
	c-161.1-22.1-319.3-70.9-451.9-154.3c-58.1-36.6-113-82.1-136.9-141.4s-8.4-134.2,51-169.2c24.6-14.5,53.9-21,82.6-27.2
	c42.3-9.1,85.3-17.9,123.5-36.4c39.5-19,86.2-55.7,78.4-97.8C445.8,118.3,439.1,78.6,479.9,41.9z"/>
<path class="st1" d="M389,464.6c0,0,10.4-7.4,21.1-2.8c0,0-3,6.4-16.4,6.3L389,464.6z"/>
<path class="st1" d="M387.7,465c0,0-2.8,12.5,5.7,20.5c0,0,4.7-5.3-0.6-17.5L387.7,465z"/>
<path class="st1" d="M374,453.7c0,0,0.4-10.5,24.2-7.9c0,0,0.4,6.8-7.8,10.3S378.3,457,374,453.7z"/>
<path class="st2" d="M852.3,730.5l-104.6,40.4L594.9,830c-5.7-10.7-14.3-25.3-24.8-42.7C533.9,727.4,474,634,420.8,552.1
	c-60-92.4-111.7-170.4-111.7-170.4l37.4-10.8l305.6-88.7L852.3,730.5z"/>
<path class="st3" d="M854.3,723.2l-104.6,40.4L597,822.7c-5.7-10.7-14.3-25.3-24.8-42.7c-36.2-59.9-96.1-153.3-149.3-235.2
	c-60-92.4-111.7-170.4-111.7-170.4l37.4-10.8l305.6-88.7L854.3,723.2z"/>
<path class="st2" d="M854.3,723.2l-104.6,40.4c-58.4,12.2-118,17.6-177.6,16.4c-36.2-59.9-96.1-153.3-149.3-235.2l-74.3-181.3
	l305.6-88.7L854.3,723.2z"/>
<path class="st4" d="M932.1,698c0,0-162.3,96.1-404.8,74.4L334,301.2l92.6-15.9l320.2-55l181.6,458.6L932.1,698z"/>
<path class="st2" d="M928.4,688.9c-38.2,1.9-82.4,1.7-127-3.6c-48.1-5.6-96.6-17.3-138.2-38.8c-34.7-17.9-64.4-37.3-90.3-60.6
	c-67.3-60.5-109-147.2-146.4-300.6l320.2-55L928.4,688.9z"/>
<path class="st3" d="M1047.5,662.6c0,0-119.7,23.4-241.5,9.1c-48.1-5.7-96.6-17.3-138.2-38.8c-34.7-17.9-64.4-37.3-90.3-60.6
	c-83.4-75-127.3-189.9-172.8-421.9c0,0,199,48,395.6-57.2C800.6,93.1,866.9,507.1,1047.5,662.6z"/>
<path class="st2" d="M806,671.6c-48.1-5.7-96.6-17.3-138.2-38.8c-34.7-17.9-64.4-37.3-90.3-60.6c71-5.7,81.2-44.6,81.2-44.6
	C711.4,611.1,806,671.6,806,671.6z"/>
<path class="st5" d="M507.8,235.4c0,0,106.9,12.2,206.9-44l6.9,22c0,0-95.8,47.7-213.8,47.7V235.4z"/>
<path class="st6" d="M507.8,344.1c0,0,106.3-8.5,224.6-65.8l4,9.2c0,0-43.6,54.8-228.6,69.1v-12.5H507.8z"/>
<path class="st6" d="M520.4,386.5c0,0,106.3-8.5,224.6-65.8l4,9.2c0,0-43.6,54.8-228.6,69.2v-12.6H520.4z"/>
<path class="st6" d="M532,432.2c0,0,106.3-8.5,224.6-65.8l4,9.2c0,0-43.6,54.8-228.6,69.2v-12.6H532z"/>
<path class="st6" d="M545.6,471.3c0,0,106.3-8.5,224.6-65.8l4,9.2c0,0-43.6,54.8-228.6,69.2v-12.6H545.6z"/>
<path class="st2" d="M558.2,513.8c0,0,106.3-8.5,224.6-65.8l4,9.2c0,0-43.6,54.8-228.6,69.2L558.2,513.8z"/>
<rect x="754.2" y="254" transform="matrix(0.9466 -0.3223 0.3223 0.9466 -45.8455 262.5487)" class="st5" width="31.5" height="31.4"/>
<rect x="771.1" y="298.2" transform="matrix(0.9466 -0.3223 0.3223 0.9466 -59.1897 270.3421)" class="st5" width="31.5" height="31.4"/>
<rect x="798.2" y="383.3" transform="matrix(0.9466 -0.3223 0.3223 0.9466 -85.1681 283.6487)" class="st5" width="31.5" height="31.4"/>
<rect x="813.8" y="429.1" transform="matrix(0.9466 -0.3223 0.3223 0.9466 -99.0841 291.1007)" class="st5" width="31.5" height="31.4"/>
<rect x="784.9" y="344.2" transform="matrix(0.9466 -0.3223 0.3223 0.9466 -73.2541 277.2581)" class="st5" width="31.5" height="31.4"/>
<linearGradient id="SVGID_1_" gradientUnits="userSpaceOnUse" x1="1024.349" y1="614.0833" x2="1024.349" y2="110.8189" gradientTransform="matrix(1 0 0 1 -22.3 121.76)">
	<stop  offset="0" style="stop-color:#808080;stop-opacity:0.25"/>
	<stop  offset="0.54" style="stop-color:#808080;stop-opacity:0.12"/>
	<stop  offset="1" style="stop-color:#808080;stop-opacity:0.1"/>
</linearGradient>
<path class="st7" d="M1121.4,468.4l-1.1-1c2.9-0.6,5.6-0.8,5.6-0.8s-9.9-35.7-26.5-47.6c-8.2-5.8-15.1-15.7-19.9-24.1
	c-8.9-15.2-18.8-29.8-29.7-43.6l-3-3.8l-1.3-1.7c1.8-2.7,4-5.3,3.8-8.4c0,0,0,0,0-0.1c0-0.2,0-0.3,0-0.5c0-0.4-0.1-0.7-0.2-1.1
	l-0.1,0.2c-1.4-4.1-6.8-5.8-10.8-8.1c-9.4-5.3-13.3-16.8-15.4-27.6c-1.6-8.3-2.8-17.7-9.4-23c-4.2-3.4-9.8-4.6-14.1-8
	c-4-3.2-6.3-8.2-8.6-12.7c-4.2-7.6-9.7-14.6-16.9-19.1c-7.2-4.5-16.5-6.3-24.5-3.2c-3,1.1-5.8,3-8.9,4.3c-7.5,3.1-16.2,2.7-23.5,6
	c-9.2,4.1-15.1,13-20.5,21.6c-2.8,4.4-7.2,10.8-9.7,17.3c0-0.2,0-0.4,0-0.6c-1.3,2.8-1.9,5.9-2,9.1c0,1.4,0.1,2.6,0.4,4
	c1.1,4.2,4.5,6.5,8.4,8.1c0.2,1.4,0.5,2.6,0.9,4c3.6,12,12.9,21.6,24.9,25.4c0.3,0.1,0.7,0.2,1,0.3c0.3,0.8,0.7,1.6,1.3,2.3
	c3.3,4.2,10,3,14.4,0c0.2-0.1,0.3-0.2,0.5-0.4c0,0.6,0.1,1.1,0.2,1.8c0.1,0.5,0.2,1,0.3,1.5c4,21,13.9,32.4,13.9,32.4
	s0.9,1.4,2.4,3.8c-0.8,11.6,4.5,22.2,10.6,30.4c-5.3,3-16.7,9.1-23.8,8.5c0,0-25.8,3.3-28.9,1.7c-0.4-0.2-0.8,0.1-1.1,0.8
	c-7.1-4.4-29.9-16.9-31.9-0.8c-1.8,14.6,19,16.5,28.9,16.6c-0.4,4.3-0.7,7.7-0.7,7.7l42.5-2.9l22.1-3.2c-2.4,3.2-5.2,6.1-7.9,7.5
	c0,0-20,16.2-23.4,16.4c-0.5,0-0.6,0.5-0.5,1.3c-8.4,0-34.6,1.3-27.3,15.8c6.6,13.2,25.2,4.1,33.6-0.9c2,3.9,3.6,6.9,3.6,6.9
	l34.3-24.5l7.4-6.3c2.5-0.1,5-0.6,7.4-1.5c0,0.1,0.1,0.2,0.1,0.3c0.3,0.7,0.4,1.6,0.6,2.4c2.1,12-4.9,39.9-4.9,39.9
	s-15.4,39.3-8,44.6c7.4,5.3,1.9,27.9,1.9,27.9c1.3,2.2,2.8,4.3,4.5,6.1l0,0c0.8,0.9,1.7,1.8,2.6,2.5c-0.3,0.9-0.6,1.9-0.8,2.9
	c-1.1,4.8-0.7,9.9,1.3,14.4c5.1,12.3,2,30.2,2,30.2l-10,67.4c-4.8-0.7-10.9-1.4-13.3,0c-3.5,2-2.4,12,5.8,16.4
	c-2.5,1.9-5.4,3.2-8.4,3.9c-7.3,1.7-12.4,2.7-15.8,3.3c-0.2,0-17.5-3.9-22-1.3s-2.3,16.5,10.3,19.9c12.4,3.3,58.5,8.2,71.7,6.3
	l0.8-0.1c11.3-2.2,1.4-17.1,0.1-18.9c-0.1-0.6-0.2-1.3-0.2-1.9c-0.2-1.6-0.3-3.3-0.4-5.2c12.6,1.1,25,1.8,30.7,0.8
	c0.3,0,0.5-0.1,0.7-0.1c10-2,1.3-15.1,0.1-16.7c0-0.4-0.1-0.8-0.2-1.3V692c0-0.3-0.1-0.6-0.1-0.9s0-0.5-0.1-0.8
	c-0.1-0.3,0-0.5-0.1-0.7c0-0.5-0.1-1-0.1-1.6c0-0.2,0-0.4,0-0.7c0-0.4,0-0.8-0.1-1.3c0-0.2,0-0.4,0-0.7c0-0.6,0-1.3-0.1-1.9
	c0-0.2,0-0.3,0-0.5c0-0.5,0-1,0-1.6c0-0.2,0-0.5,0-0.7c0-0.5,0-1.1,0-1.7c0-0.2,0-0.3,0-0.5c0-0.7,0.1-1.5,0.1-2.1l0.1-0.7
	c0-0.5,0.1-1,0.1-1.6c0-0.2,0-0.5,0.1-0.8c0.1-0.7,0.2-1.5,0.3-2.2c0-0.2,0.1-0.4,0.1-0.6c0.1-0.5,0.2-1.1,0.3-1.7
	c0-0.3,0.1-0.5,0.2-0.8c0.1-0.6,0.3-1.3,0.4-1.8c0-0.2,0.1-0.3,0.1-0.5c0.2-0.7,0.4-1.5,0.6-2.2c0.1-0.2,0.2-0.5,0.2-0.7
	c0.2-0.5,0.3-1,0.5-1.6l0.2-0.6c0.3-0.7,0.6-1.4,0.9-2.1c0.1-0.2,0.2-0.3,0.3-0.5c0.2-0.5,0.5-1,0.8-1.6l0.3-0.6
	c0.4-0.6,0.8-1.4,1.3-2c11.5-16.4,14.5-47.8,14.2-54.7c-0.3-6.9,1.4-21,3.4-23.1c1.4-1.4,9.4-12.5,14.2-20.9c0.8-1.6,1.6-3,2.2-4.3
	c3.4-1.1,5.6-2.1,5.6-2.1l0,0l0,0c-1.1-4.4-1.8-8.9-1.7-13.4c0.1-8.9,2.5-20.5,12.6-30c14.9-14,16.9-27.9,17.1-33.2c0-0.4,0-0.7,0-1
	C1121.4,468.9,1121.4,468.4,1121.4,468.4z"/>
<path class="st8" d="M1081.8,555.9c-4.1,7.2-8.5,14.2-13.5,20.7c-2,2.1-3.5,16.2-3.2,22.9s-2.6,37.9-13.5,54.1
	c-10.9,16.2-5.3,44.1-5.3,44.1l-17.5,6.1h-21l-14.5-4.3l-3.9-10.5c0,0,5.1-0.8,17.7-3.8c7.2-1.5,12.5-7.5,13-14.9l8.9-61.9
	c0,0,2.6-15.6-1.7-26.5c-2.5-6.1-2-13.1,1.5-18.9l0.3-0.4c0,0,13.7-10.8,27.6-17.6c12.3-5.9,24.9-8.8,28.4,1.8
	C1085.6,548.1,1084,551.7,1081.8,555.9z"/>
<path class="st9" d="M1081.8,555.9c-4.1,7.2-8.5,14.2-13.5,20.7c-2,2.1-3.5,16.2-3.2,22.9s-2.6,37.9-13.5,54.1
	c-7.7,11.4-7.2,28.7-6.3,37.8c0.4,3.9,0.9,6.3,0.9,6.3l-17.5,6.1h-20.9l-14.5-4.3l-3.9-10.5c0,0,1.3-0.2,4.2-0.7
	c2.9-0.5,7.3-1.6,13.7-3c7.2-1.5,12.5-7.6,13-14.9l8.9-61.9c0,0,2.6-15.6-1.7-26.5c-2.5-6.1-2-13.1,1.5-18.9l0.3-0.4
	c0,0,13.7-10.8,27.6-17.6c12.3-5.9,24.9-8.8,28.4,1.8C1085.6,548.1,1084,551.7,1081.8,555.9z"/>
<path class="st2" d="M1046.1,697.7l-17.5,6.1h-21l-14.5-4.4l-3.9-10.5c0,0,1.3-0.2,4.2-0.7c-0.4,4,2.2,7.6,6,8.5l8.2,0.3
	c1.1,0,2.3,0.1,3.4,0.1c11.6,0,23-1.9,34-5.6C1045.7,695.2,1046.1,697.7,1046.1,697.7z"/>
<path class="st10" d="M1007.8,698.7l-8.2-0.3c0,0-7.7-1.7-5.8-10.3c0,0-14.8-3.3-18.5-1.1c-3.8,2.2-2,14.5,8.8,17.5
	c10.4,2.9,49.5,7.2,60.6,5.4l0.7-0.1c10.2-2.1,0-16.7,0-16.7l0,0C1033.3,697.2,1020.5,699.1,1007.8,698.7z"/>
<path class="st8" d="M1058.5,558.2c-0.5,1.1-1.1,2.3-1.9,3.4c-5.2,9.4-13.4,21.2-14.9,22.7c-2.2,2.4-4,18.2-3.6,25.9
	s-2.9,42.8-15.3,61.1c-6.4,9.4-7.7,22.1-7.6,32.4c0,3.4,0.2,7,0.6,10.4c0.4,4.3,1,6.9,1,6.9l-19.7,6.9h-23.8l-16.4-4.9l-4.3-11.9
	c0,0,1.5-0.2,4.7-0.8s8.2-1.7,15.3-3.3c8.1-1.7,14.1-8.5,14.7-16.8l10-69.9c0,0,2.9-17.7-1.9-29.9c-1.9-4.5-2.2-9.5-1.1-14.3
	c0.6-2.7,1.7-5.2,3.1-7.5c0,0,3.9-3,9.6-7c2.5-1.8,5.5-3.6,8.6-5.6c14-8.6,32.2-17.4,41-11c2,1.5,3.3,3.5,4.1,5.8
	C1061.1,552.1,1060.1,554.8,1058.5,558.2z"/>
<path class="st2" d="M1016.7,721.1L997,728h-23.7l-16.4-4.9l-4.3-11.9c0,0,1.5-0.2,4.7-0.8c-0.4,2.9,0.6,5.7,2.8,7.7
	c1.7,1.4,3.8,2.2,5.8,2.2l7.5,0.2c1.3,0,2.6,0.1,4,0.1c13,0,25.9-2.2,38.3-6.4C1016.2,718.4,1016.7,721.1,1016.7,721.1z"/>
<path class="st10" d="M973.4,722.3l-7.5-0.2c-2.2,0-4.3-0.8-5.9-2.2c-1.9-1.7-3.5-4.6-2.5-9.5c0,0-16.7-3.8-20.9-1.3
	c-4.3,2.5-2.2,16.4,9.9,19.7c11.8,3.3,55.9,8.1,68.5,6.1l0.8-0.1c11.5-2.4,0-18.9,0-18.9l0,0C1002.2,720.6,987.8,722.8,973.4,722.3z
	"/>
<path class="st2" d="M1081.8,555.9c-7.1,2.5-17.6,5.8-23.3,5.9c-0.6,0-1.1,0-1.8-0.1l0,0c-4.1-0.5-16.5,0.3-27.8,1.4
	c-4.6,0.4-9,0.8-12.6,1.3c-5.4,0.5-9.2,0.9-9.2,0.9v-3.5c2.5-1.8,5.5-3.6,8.6-5.6c14-8.6,32.2-17.4,41-11
	c12.3-5.9,24.9-8.8,28.4,1.8C1085.6,548.1,1084,551.7,1081.8,555.9z"/>
<path class="st11" d="M1116.1,473.6c-0.2,5.3-2.2,19-16.4,32.8c-18.1,17.7-10.4,43-10.4,43s-21.6,8.4-30.8,8.6c-0.6,0-1.1,0-1.8-0.1
	c-5.6-0.8-27.7,1.3-40.5,2.6c-5.4,0.5-9.2,0.9-9.2,0.9v-75l99.9-24.3l9.1,9C1116,472.2,1116.1,472.9,1116.1,473.6z"/>
<g class="st12">
	<path d="M1008.7,560.7l-1.7,0.2v0.8c0,0,3.8-0.4,9.2-0.9c9.2-0.9,23.1-2.2,32.4-2.6C1042.1,557.6,1021,559.5,1008.7,560.7z"/>
	<path d="M1116,471.4l-9.1-9.1l-6,1.6l7.6,7.5c0,0.7,0,1.5,0,2.3c-0.2,5.3-2.2,19-16.4,32.8c-18.1,17.6-10.4,43-10.4,43
		s-17.8,7-28,8.4c0.9,0,2,0,2.9,0.2c0.6,0.1,1.1,0.1,1.8,0.1c9.3-0.2,30.8-8.6,30.8-8.6s-7.7-25.3,10.4-43
		c14.2-13.9,16.2-27.6,16.4-32.8C1116.1,473,1116.1,472.3,1116,471.4z"/>
</g>
<path class="st8" d="M916.3,420.7c0,0-30.2-20.9-32.4-2.1s32.4,16.2,32.4,16.2V420.7z"/>
<path class="st13" d="M968.4,406.7c0,0-16.4,10.8-25.4,10.1c0,0-24.7,3.3-27.6,1.7s-4.6,24-4.6,24l40.6-2.9l26-4c0,0,13-7.9,13-14.8
	S968.4,406.7,968.4,406.7z"/>
<path class="st9" d="M968.4,406.7c0,0-16.4,10.8-25.4,10.1c0,0-24.7,3.3-27.6,1.7s-4.6,24-4.6,24l40.6-2.9l26-4c0,0,13-7.9,13-14.8
	S968.4,406.7,968.4,406.7z"/>
<path class="st8" d="M944.4,461.3c0,0-36.8-1.6-28.6,15.6c8.2,17.2,36.1-3.6,36.1-3.6L944.4,461.3z"/>
<path class="st11" d="M981.4,424.9c0,0-29.8-22.3-25.6-49.4c4.2-27.1,25.6,20.7,25.6,20.7V424.9z"/>
<path class="st8" d="M973.1,301.8c0,9.8-3.9,19.2-10.6,26.2c-1.7,1.8-3.4,3.2-5.4,4.7c-3.8,2.6-7.9,4.6-12.4,5.7
	c-1.8,0.4-3.5,0.7-5.3,0.9c-1.3,0.1-2.6,0.2-4,0.2c-4.3,0-8.4-0.7-12.4-2.1c-19.6-6.9-30-28.3-23.1-47.9c6.9-19.6,28.3-30,47.9-23.1
	C963,271.6,973.1,285.9,973.1,301.8L973.1,301.8z"/>
<path class="st2" d="M1116.1,473.6c-3.3,0.6-7.5,1.8-7.5,3.5c0,2.9-47.1,18.9-47.1,18.9s1.8,4.1-2.9,11.1
	c-4.7,7.1-42.9,47.6-42.9,47.6l0.1,1.3l0.5,4.7l2.3,22.4c0,0-14.7-5.3-19.4-4.7c-1.6,0.2-3.1-0.8-4.7-2.2c0.6-2.7,1.7-5.2,3.1-7.5
	c0,0,3.9-3,9.6-7v-75l99.9-24.3l9.1,9C1116.1,472.2,1116.1,472.9,1116.1,473.6z"/>
<path class="st13" d="M1120.3,469.6c0,0-11.8,1.1-11.8,4.2s-47.1,18.9-47.1,18.9s1.8,4.1-2.9,11.1c-4.7,7.1-42.9,47.7-42.9,47.7
	l2.9,28.2c0,0-14.7-5.3-19.4-4.7c-2.1,0.2-4.4-1.7-6.4-4c-1.6-1.9-3-4-4.3-6c0,0,5.3-22.4-1.8-27.6c-7.1-5.2,7.6-44.1,7.6-44.1
	s6.7-27.6,4.7-39.5c-0.1-0.8-0.3-1.6-0.5-2.3c0-0.1,0-0.2-0.1-0.2C994.2,440,949,345.1,949,345.1c0-2.7,0.2-5.4,0.5-8
	c0.1-0.7,0.2-1.6,0.3-2.3c0.2-1.4,0.5-2.8,0.9-4.2c0.2-0.8,0.5-1.8,0.8-2.6c1.4-3.5,3.5-6.4,6.8-6.4c0,0,3.5-4,11.8-5
	c6-0.8,14.7,0,26.5,5c27.6,11.8,34.2,12.4,34.2,12.4l13.9,18.2l2.8,3.8c10.4,13.7,19.9,28,28.3,43c4.6,8.3,11.1,18,19.1,23.9
	C1110.9,434.2,1120.3,469.6,1120.3,469.6z"/>
<path class="st2" d="M1017.1,401.5c0,0,39.3,9.7,54.5,34.2L1017.1,401.5z"/>
<path class="st2" d="M1029.3,444.5c0,0,7.4,49.9,5.4,53.7C1032.7,501.9,1029.3,444.5,1029.3,444.5z"/>
<path class="st2" d="M1026.6,470.1c-2.8,3.8-14.5,32.6-14.5,32.6l3.3,48.6l2.9,28.2c0,0-14.7-5.3-19.4-4.7c-2.1,0.2-4.5-1.7-6.4-4
	c3-16.6,9.6-51.2,10.7-51.8c1.6-0.8,9.5-28.7,9.9-36.5c0.4-7.8,11.5-25.1,11.5-25.1S1029.5,466.3,1026.6,470.1z"/>
<path class="st2" d="M1015.5,422.5c-0.7,2.2-1.9,15-1.9,15c-0.8,11.3-9.4,15-14.6,16.2c-0.1-0.8-0.3-1.6-0.5-2.3
	c-3.5-10-49.4-106.5-49.4-106.5c0-4.9,0.6-9.8,1.9-14.5c10-2.9,25.8,1.6,25.8,1.6c4.6-0.6,19.5,29.1,19.5,29.1s9.9,22.7,11,25.8
	c1.1,3.1,0,8.1,0.4,9.9c0.4,1.8,5.1,3.3,5.7,5.7c0.6,2.4,0.2,7.3,0.6,8.1S1016.3,420.3,1015.5,422.5z"/>
<path class="st13" d="M1012,420.7c-0.7,2.2-1.9,15-1.9,15c-0.6,9.4-6.7,13.5-11.8,15.3c-2.3,0.8-4.7,1.3-7.1,1.5l-7.1,6.1
	l-32.7,24.1c0,0-12.2-22.6-8.9-22.7s22.4-16.2,22.4-16.2c5.8-3.1,11.7-13.5,14.4-18.9c-0.2-0.6-0.3-1.3-0.3-2
	c-1.1-10-25.8-48.2-25.8-48.2s-9.6-11.3-13.2-32.1c-0.1-0.5-0.2-0.9-0.3-1.5c-0.1-0.6-0.2-1.4-0.2-2c-0.4-8,5.4-10.9,12.3-11.6l0,0
	c3.6-0.3,7.3-0.2,10.8,0.3c3.5,0.4,7.1,1.1,10.6,2.1c2.9-0.4,10.2,11.9,15,20.6l0,0c2.6,4.7,4.4,8.4,4.4,8.4s9.9,22.7,11,25.8
	s0,8.2,0.4,9.9c0.4,1.7,5.1,3.3,5.7,5.7c0.6,2.4,0.2,7.3,0.6,8.1S1012.7,418.5,1012,420.7z"/>
<path class="st2" d="M1050,369.7c-6.3,6.4-16.4,6.4-24.5,3.1s-15-9.2-22.5-13.8c-4.9-3-10-5.4-14.8-8.4l0,0
	c-0.7-0.4-1.4-0.9-2.1-1.4c-5.5-4-10.3-9-16-12.5c-3.9-2.6-8.3-4-12.9-4.2c-2.1,0-4.3,0.4-6.1,1.3c-0.3,0.1-0.7,0.3-1,0.5
	c-1.9,1-3.6,2.4-5.2,4c-1.7,1.5-3.1,3-4.9,4.4c-0.1-0.5-0.2-0.9-0.3-1.5c-0.1-0.6-0.2-1.4-0.2-2c-1.3,0.1-2.6,0.2-4,0.2
	c-4.3,0-8.4-0.7-12.4-2.1c0-0.1,0-0.3-0.1-0.5c-1.4-7.4-4-15.3-9.9-19.5c-3.4-2.4-9-3.4-13.8-5.2c-5.7-20,5.8-40.8,25.8-46.6
	c20-5.7,40.8,5.8,46.6,25.8c2.4,8.2,1.9,17-1.5,24.9c6-0.8,14.7,0,26.5,5c27.6,11.8,34.2,12.4,34.2,12.4l13.9,18.2
	c-1.5,2.3-3.2,4.6-3.3,7.2C1041.1,364,1045.9,367.5,1050,369.7z"/>
<path class="st14" d="M913.1,313.9c5.9,4.2,8.5,12,9.9,19.4c0.4,2.3,0.8,4.8,2.3,6.6c3.1,4.1,9.6,2.9,13.7,0c4.1-2.9,7.4-7.4,12-9.5
	c6.1-2.8,13.3-0.7,19.1,2.8s10.5,8.6,16,12.5c5.4,3.8,11.4,6.5,16.9,9.9c7.5,4.6,14.4,10.5,22.5,13.8s18.2,3.2,24.5-3.1
	c-4.2-2.3-9-5.7-8.6-10.7c0.3-5,6-8.6,5.7-13.8c-0.3-5.1-6.4-7.1-10.6-9.6c-9-5.2-12.8-16.7-14.7-27.2c-1.5-8.2-2.7-17.5-8.9-22.8
	c-4-3.4-9.4-4.6-13.4-7.9c-3.9-3.2-5.9-8.1-8.3-12.6c-4-7.5-9.3-14.4-16.2-18.9c-6.9-4.5-15.7-6.3-23.3-3.2
	c-2.9,1.1-5.5,2.9-8.4,4.2c-7.2,3.1-15.4,2.7-22.5,5.9c-8.8,4.1-14.4,12.9-19.6,21.4c-4.4,7.2-13.1,19.9-10.6,29.3
	C892.8,309.9,906.6,309.4,913.1,313.9z"/>
<g class="st12">
	<path d="M1047.1,341.2c0-0.4-0.1-0.7-0.2-1.1c-1.6,2.5-3.5,4.9-3.8,7.8c0,0.6,0,1.4,0.2,2C1045,347.1,1047.3,344.5,1047.1,341.2z"
		/>
	<path d="M1027.3,361.7c-8.1-3.2-15-9.2-22.5-13.8c-5.6-3.4-11.6-6.1-17-9.9c-5.5-4-10.3-9-16-12.5c-5.7-3.5-12.9-5.6-19.1-2.8
		c-4.6,2.1-7.8,6.5-12,9.5c-4.2,3-10.5,4.2-13.7,0c-1.5-1.9-1.9-4.3-2.3-6.6c-1.4-7.4-4-15.2-9.9-19.4c-6.5-4.6-20.2-4.1-22.7-13.5
		c-0.4-1.7-0.5-3.4-0.3-5.2c-1.6,4.3-2.4,8.5-1.5,12.3c2.5,9.6,16.3,9.1,22.7,13.5c5.9,4.2,8.5,12,9.9,19.4c0.4,2.3,0.8,4.8,2.3,6.6
		c3.1,4.1,9.6,2.9,13.7,0c4.1-2.9,7.4-7.4,12-9.5c6.1-2.7,13.3-0.7,19.1,2.8c5.7,3.5,10.5,8.6,16,12.5c5.4,3.8,11.4,6.5,16.9,9.9
		c7.5,4.6,14.4,10.5,22.5,13.8c8.1,3.2,18.2,3.2,24.5-3.1c-1.6-0.8-3.1-1.9-4.6-3C1039.8,364.7,1033,364.1,1027.3,361.7z"/>
</g>
<path class="st15" d="M842.9,433l83.4-31.2c4.1-1.6,8.6,0.5,10.2,4.6l0,0l0,0c1.6,4.1-0.5,8.6-4.7,10.2l0,0l-83.4,31.2l-17.8-1.8
	L842.9,433z"/>
<path class="st16" d="M934,404L934,404c1.6,4.1-0.5,8.6-4.7,10.2l-83.4,31.2l-13.4-1.4l-1.9,2.1l17.8,1.8l83.4-31.2
	c4.1-1.6,6.1-6.1,4.7-10.2l0,0l0,0c-0.6-1.7-1.8-3-3.2-4C933.4,403.1,933.7,403.5,934,404z"/>
<polygon class="st17" points="842.9,433 848.4,447.9 833.8,446.4 830.6,446.1 835,441.4 "/>
<path class="st18" d="M835,441.4c0.3,0.2,0.6,0.5,0.8,0.9c0.3,0.4,0.3,1,0,1.5c-0.2,0.2-0.5,0.4-0.8,0.5c-0.7,0.4-1.1,1.1-1.1,2
	l-3.2-0.3L835,441.4z"/>
<path class="st19" d="M770.2,272l-14.1-6.9c-0.8-0.4-1.1-1.5-0.8-2.3l0,0l1.5-3c0.4-0.8,1.5-1.1,2.3-0.8l0,0l9.5,4.6l9.9-20.3
	c0.4-0.8,1.5-1.1,2.3-0.8l3,1.5c0.8,0.4,1.1,1.5,0.8,2.3l0,0l-12.1,25.1C772,272.1,771,272.4,770.2,272L770.2,272z"/>
<path class="st19" d="M800.8,359.7l-14.1-6.9c-0.8-0.4-1.1-1.5-0.8-2.3l0,0l1.5-3c0.4-0.8,1.5-1.1,2.3-0.8l9.5,4.6L809,331
	c0.4-0.8,1.5-1.1,2.3-0.8l3,1.5c0.8,0.4,1.3,1.5,0.8,2.3l0,0l-12.1,24.9C802.7,359.7,801.6,360.2,800.8,359.7L800.8,359.7z"/>
<path class="st19" d="M787,316.5l-14.1-6.9c-0.8-0.4-1.1-1.5-0.8-2.3l1.5-3c0.4-0.8,1.5-1.1,2.3-0.8l0,0l9.5,4.6l9.9-20.3
	c0.4-0.8,1.5-1.1,2.3-0.8l0,0l3,1.5c0.8,0.4,1.1,1.5,0.8,2.3l-12.1,25.1C788.9,316.6,787.9,316.9,787,316.5L787,316.5L787,316.5z"/>
<path class="st19" d="M814.1,399.3l-14.1-6.9c-0.8-0.4-1.1-1.5-0.8-2.3l0,0l1.5-3c0.4-0.8,1.5-1.1,2.3-0.8l0,0l9.5,4.6l9.9-20.3
	c0.4-0.8,1.5-1.1,2.3-0.8l3,1.5c0.8,0.4,1.1,1.5,0.8,2.3l0,0l-12.1,25.1C816,399.4,815.1,399.8,814.1,399.3z"/>
</svg>
