<?xml version="1.0" encoding="utf-8"?>
<!-- Generator: Adobe Illustrator 23.0.1, SVG Export Plug-In . SVG Version: 6.00 Build 0)  -->
<svg version="1.1" id="Calque_1" xmlns="http://www.w3.org/2000/svg" xmlns:xlink="http://www.w3.org/1999/xlink" x="0px" y="0px"
	 viewBox="0 0 1420 830" style="enable-background:new 0 0 1420 830;" xml:space="preserve">
<style type="text/css">
	.st0{display:none;fill:#17CAD1;}
	.st1{fill:#F2F2F2;}
	.st2{fill:#3F3D56;}
	.st3{opacity:0.1;enable-background:new    ;}
	.st4{fill:#FC5858;}
	.st5{fill:#17CAD1;}
	.st6{fill:#A8A8A8;}
	.st7{opacity:0.2;enable-background:new    ;}
	.st8{fill:#FFB9B9;}
	.st9{fill:#575A89;}
	.st10{fill:#2F2E41;}
	.st11{opacity:0.3;fill:#17CAD1;enable-background:new    ;}
</style>
<path class="st0" d="M389,464.6c0,0,10.4-7.4,21.1-2.8c0,0-3,6.4-16.4,6.3L389,464.6z"/>
<path class="st0" d="M387.7,465c0,0-2.8,12.5,5.7,20.5c0,0,4.7-5.3-0.6-17.5L387.7,465z"/>
<path class="st0" d="M374,453.7c0,0,0.4-10.5,24.2-7.9c0,0,0.4,6.8-7.8,10.3S378.3,457,374,453.7z"/>
<circle class="st1" cx="813.6" cy="396.9" r="396.3"/>
<path class="st2" d="M1179.2,778.4c0,16.4-216.9,51-484.6,51s-484.6-34.5-484.6-51c0-16.4,216.9-8.5,484.6-8.5
	S1179.2,762,1179.2,778.4z"/>
<path class="st3" d="M1179.2,778.4c0,16.4-216.9,51-484.6,51s-484.6-34.5-484.6-51c0-16.4,216.9-8.5,484.6-8.5
	S1179.2,762,1179.2,778.4z"/>
<ellipse class="st2" cx="694.6" cy="778.4" rx="484.6" ry="29.7"/>
<path class="st4" d="M977.5,637.6c0,67.2,42.1,121.5,94.2,121.5"/>
<path class="st5" d="M1071.7,759c0-67.9,47-122.9,105.1-122.9"/>
<path class="st5" d="M1011.6,643.6c0,63.8,26.9,115.4,60.1,115.4"/>
<path class="st4" d="M1071.7,759c0-86.8,54.3-157,121.5-157"/>
<path class="st6" d="M1051.9,759.9c0,0,13.4-0.4,17.4-3.3c4-2.9,20.5-6.3,21.6-1.7c1,4.6,20.1,22.9,5,23c-15.1,0.1-35-2.3-39-4.8
	C1052.7,770.7,1051.9,759.9,1051.9,759.9z"/>
<path class="st7" d="M1096,776.3c-15.1,0.1-35-2.3-39-4.8c-3.1-1.8-4.3-8.6-4.7-11.6c-0.3,0-0.4,0-0.4,0s0.8,10.7,4.9,13.2
	c4,2.5,24,4.9,39,4.8c4.4,0,5.8-1.6,5.8-3.9C1100.9,775.5,1099.3,776.3,1096,776.3z"/>
<path class="st8" d="M818.6,250.7c0,0,13.6,28.5,8.2,42.2c-5.4,13.6,20.4,28.5,20.4,28.5l34-19v-24.5l-5.4-10.8
	c0,0-21.8-12.3-19-31.3C859.6,216.7,818.6,250.7,818.6,250.7z"/>
<path class="st3" d="M818.6,250.7c0,0,13.6,28.5,8.2,42.2c-5.4,13.6,20.4,28.5,20.4,28.5l34-19v-24.5l-5.4-10.8
	c0,0-21.8-12.3-19-31.3C859.6,216.7,818.6,250.7,818.6,250.7z"/>
<path class="st8" d="M792.8,370.3c0,0-2.8,29.9-2.8,34c0,4.1-4.1,17.7-4.1,17.7S771,491.3,761.4,498c-9.5,6.8-14.9,48.9,0,46.2
	c14.9-2.8,19-39.4,19-39.4l30.9-58.4l4.4-70.7L792.8,370.3z"/>
<path class="st9" d="M803.6,310.4h-10.8c0,0-10.8,65.3,0,67.9c10.8,2.8,31.3,2.8,31.3,2.8L803.6,310.4z"/>
<polygon class="st8" points="864.8,730.5 870.2,756.3 881.1,748.2 875.6,725 864.8,729.1 "/>
<path class="st10" d="M815.9,454.5l-8.2,5.4c0,0-4.1,47.6,5.4,84.3s16.3,80.2,16.3,80.2s16.3,108.8,20.4,111.4
	c4.1,2.7,29.9,4.1,31.3-1.3c1.3-5.4-9.5-107.4-9.5-107.4s-8.2-85.6-1.3-96.5c0,0,21.8,93.8,28.5,103.3c0,0,9.5,103.3,14.9,106
	s31.3,4.1,32.6-1.3c1.3-5.4-8.2-122.4-12.3-131.9c-4.1-9.5-5.4-150.9-14.9-149.5C909.6,458.6,815.9,454.5,815.9,454.5z"/>
<circle class="st8" cx="832.2" cy="231.6" r="31.3"/>
<path class="st9" d="M844.4,300.9l-6.8-12.3c0,0-8.2-10.8-12.3-8.2c-4.1,2.8-4.1,12.3-4.1,12.3s-31.2,10.9-28.4,25.8
	c2.8,14.9,20.4,40.8,20.4,40.8s2.8,21.8,0,27.2c-2.8,5.4-8.2,9.5-4.1,14.9c4.1,5.4,5.4,6.8,4.1,13.6c-1.3,6.8-4.1,9.5-1.3,12.3
	c2.8,2.8-1.3,31.3-4.1,32.6c-2.8,1.3,87,14.9,93.8,10.8c6.8-4.1,25.8-4.1,24.5-8.2c-1.3-4.1-6.8-28.5-6.8-32.6s0-21.8-1.3-23.1
	s1.3-21.8,1.3-21.8l-6.8-57.1l21.8-34c0,0-5.4-19-31.3-21.8c-25.8-2.8-33-9.5-33-9.5s-2.3,12.3-7.8,14.9
	C856.6,280.6,844.4,300.9,844.4,300.9z"/>
<path class="st8" d="M943.7,337.7l8.2,61.2l-17.7,88.4c0,0-6.8,50.3-20.4,48.9s0-54.3,0-54.3l10.8-82.9c0,0-17.7-42.2-13.6-47.6
	C915.1,345.7,943.7,337.7,943.7,337.7z"/>
<path class="st10" d="M877.1,744.1c0,0-17.7-9.5-21.8-8.2c-4.1,1.3-8.2,20.4-8.2,20.4s-31.3,23.1-10.8,28.5s28.5-6.8,28.5-6.8
	s20.4-10.8,20.4-13.6c0-2.8-2.8-20.4-2.8-20.4L877.1,744.1z"/>
<path class="st10" d="M917.8,737.3c0,0-8.2,44.8-2.8,47.6c5.4,2.8,28.5,6.8,31.3,0c2.8-6.8,2.8-23.1,1.3-28.5
	c-1.3-5.4-5.4-19-5.4-19h-24.4V737.3z"/>
<path class="st10" d="M826.7,182.1c-1.2-0.4-2.6-0.4-3.8-0.1c-1.5,0.5-2.6,1.9-3.8,3.1c-3.2,3-7.6,3.9-11.6,5.3
	c-4.1,1.4-8.4,3.9-9.4,8.1c-0.2,1.6-0.4,3.4-0.4,5.1c-0.6,4.9-4.4,9.4-3.7,14.3c0.4,3.2,2.8,5.9,3.2,9.2c0.5,3.6-1.3,7.3-0.3,10.7
	c1,3.4,4.3,5.5,7.5,7.3c1.3-8.4,2.9-16.8,4.8-25c0.2-1.5,0.8-3,1.7-4.1c2.8-3.1,8.1-1.3,11.6-3.5c1.3-0.8,2.3-2.1,3.8-2.8
	c4.1-1.9,8.6,2.3,13.1,2.5c2,0,4.2-0.8,5.9,0.3c0.7,0.5,1.3,1.3,1.7,2.1c1.6,3.1,2.6,6.4,4.4,9.3c1.8,2.9,5.3,5.2,8.6,4.4
	c-0.5-2.6,1.5-4.9,2.3-7.5c1.4-4.3-0.9-9-0.3-13.6c0.5-4.3,3.3-9.2,0.2-12.3c-1-0.9-2.2-1.5-3.6-1.8
	C847.9,189.8,838,184.1,826.7,182.1z"/>
<path class="st9" d="M920.6,288.7l13.6,5.4c0,0,17.7,57.1,13.6,57.1s-40.8,9.5-40.8,5.4C907,352.6,909.6,288.7,920.6,288.7z"/>
<polygon class="st2" points="705.3,172.7 284.5,172.7 284.5,310.8 300.5,310.8 300.5,347 336.5,310.8 705.3,310.8 "/>
<polygon class="st2" points="705.3,544.6 284.5,544.6 284.5,682.8 300.5,682.8 300.5,718.9 336.5,682.8 705.3,682.8 "/>
<polygon class="st2" points="358.9,359.7 779.6,359.7 779.6,497.8 763.7,497.8 763.7,534 727.6,497.8 358.9,497.8 "/>
<rect x="333.4" y="195.6" class="st11" width="323.1" height="12.8"/>
<rect x="333.4" y="220" class="st11" width="161.5" height="12.8"/>
<circle class="st11" cx="351.4" cy="270" r="18.1"/>
<rect x="397.1" y="380.5" class="st5" width="323.1" height="12.8"/>
<rect x="397.1" y="404.9" class="st5" width="161.5" height="12.8"/>
<circle class="st5" cx="415.2" cy="454.8" r="18.1"/>
<rect x="333.4" y="567.5" class="st11" width="323.1" height="12.8"/>
<rect x="333.4" y="591.9" class="st11" width="161.5" height="12.8"/>
<circle class="st11" cx="351.4" cy="641.9" r="18.1"/>
</svg>
