<?xml version="1.0" encoding="utf-8"?>
<!-- Generator: Adobe Illustrator 23.0.1, SVG Export Plug-In . SVG Version: 6.00 Build 0)  -->
<svg version="1.1" id="Calque_1" xmlns="http://www.w3.org/2000/svg" xmlns:xlink="http://www.w3.org/1999/xlink" x="0px" y="0px"
	 viewBox="0 0 1420 830" style="enable-background:new 0 0 1420 830;" xml:space="preserve">
<style type="text/css">
	.st0{display:none;fill:#17CAD1;}
	.st1{fill:#3F3D56;}
	.st2{fill:none;stroke:#3F3D56;stroke-width:2;stroke-miterlimit:10;}
	.st3{fill:#E6E6E6;}
	.st4{fill:#17CAD1;}
	.st5{fill:#FFFFFF;}
	.st6{fill:#FC5858;}
	.st7{fill:#A8A8A8;}
	.st8{opacity:0.2;enable-background:new    ;}
	.st9{fill:#2F2E41;}
	.st10{fill:#A0616A;}
	.st11{fill:#575A89;}
	.st12{opacity:0.1;enable-background:new    ;}
	.st13{fill:#F2F2F2;}
</style>
<path class="st0" d="M389,464.6c0,0,10.4-7.4,21.1-2.8c0,0-3,6.4-16.4,6.3L389,464.6z"/>
<path class="st0" d="M387.7,465c0,0-2.8,12.5,5.7,20.5c0,0,4.7-5.3-0.6-17.5L387.7,465z"/>
<path class="st0" d="M374,453.7c0,0,0.4-10.5,24.2-7.9c0,0,0.4,6.8-7.8,10.3S378.3,457,374,453.7z"/>
<ellipse class="st1" cx="714.2" cy="776.9" rx="293.8" ry="51.9"/>
<path class="st2" d="M469.3,287.3c0-75.7,111-137.1,248-137.1s248,61.4,248,137.1"/>
<path class="st3" d="M795.3,202.9H593.5c-40-67.2-40-134.5,0-201.7h201.7C739.5,68.4,739.5,135.7,795.3,202.9z"/>
<rect x="622.4" y="25.2" class="st4" width="113.7" height="14.5"/>
<rect x="585.5" y="72.4" class="st5" width="150.5" height="4.9"/>
<rect x="585.5" y="97.3" class="st5" width="150.5" height="4.9"/>
<rect x="585.5" y="122.1" class="st5" width="150.5" height="4.9"/>
<path class="st6" d="M875.9,649.6c0,64,40.2,115.7,89.7,115.7"/>
<path class="st4" d="M965.6,765.3c0-64.7,44.8-117.1,100.1-117.1"/>
<path class="st4" d="M908.4,655.4c0,60.8,25.6,110,57.2,110"/>
<path class="st6" d="M965.6,765.3c0-82.7,51.7-149.6,115.7-149.6"/>
<path class="st7" d="M946.7,766.1c0,0,12.7-0.4,16.5-3.1c3.8-2.7,19.6-6,20.5-1.7s19.1,21.8,4.7,21.9c-14.4,0.1-33.3-2.3-37.2-4.5
	C947.5,776.4,946.7,766.1,946.7,766.1z"/>
<path class="st8" d="M988.8,781.7c-14.4,0.1-33.3-2.3-37.2-4.5c-2.9-1.8-4-8.2-4.4-11c-0.3,0-0.4,0-0.4,0s0.8,10.2,4.6,12.6
	c3.8,2.4,22.8,4.6,37.2,4.5c4.1,0,5.6-1.5,5.5-3.7C993.5,780.9,991.9,781.7,988.8,781.7z"/>
<path class="st9" d="M671.1,158.8c1.1,0.5,2.6-0.3,3.3-1.3c2.6-4.1-2.2-9.5-1.1-14.2c0.8-3.8,5.2-6.1,6.1-9.9
	c0.8-3.7-1.8-7.8,0-11.3c1.4-2.6,5-3.3,7.8-2.9c2.9,0.4,5.8,1.8,8.8,2c3.9,0.2,7.7-1.5,11.7-2.4c3.9-0.8,8.6-0.5,10.9,2.7
	c2.9,4.2,0,10,0.9,15c0.8,3.9,4.1,7.2,4.2,11.4c0,1.4-3.7,0.3-3.6,1.8s-1.5,0.2-0.2,0c1.2-0.3,2.1-1.3,2.2-2.6
	c0.2-1.2,2.4-1.5,2.4-2.8c-0.1-2.8,5.1-0.9,5.9-3.6c2-6.3,1.5-13-1.1-19c-1.1-2.6-2.7-5-3.2-7.7c-0.7-3.7,0.4-7.7-0.8-11.4
	c-1.7-4.9-7.1-7.3-12.3-7.8c-5.1-0.5-10.3,0.4-15.4-0.3c-4.5-0.6-9-2.7-13.5-2.4c-5.5,0.3-10.3,3.9-14.1,7.8c-3.8,4-7,8.6-11.4,12
	c-1.3,0.9-2.6,2-3.6,3.1c-2.2,2.7-2.5,6.5-1.9,9.9c0.6,3.4,2,6.7,2.5,10.1c0.5,3.2,0.4,6.5,0.6,9.8s0.9,6.6,2.9,9.2
	c1.5,2.2,4.1,3.5,6.8,3.5c0.9,0,1.7-0.8,2.6-0.6C669.6,157.2,670.1,158.3,671.1,158.8z"/>
<polygon class="st10" points="631.8,395.7 635.2,416.7 642,407.4 638.1,393.3 "/>
<path class="st11" d="M636.2,237.7l-5.4,14.1c0,0-5.4,72-5.4,77.2c0,5.3,3.9,73.9,5.4,76.8c0,0,6.3-9.2,14.6-7.7
	c8.3,1.4,4.9-24.3,4.9-24.3l7.7-63.7l-1.4-32.1L636.2,237.7z"/>
<path class="st12" d="M636.2,237.7l-5.4,14.1c0,0-5.4,72-5.4,77.2c0,5.3,3.9,73.9,5.4,76.8c0,0,6.3-9.2,14.6-7.7
	c8.3,1.4,4.9-24.3,4.9-24.3l7.7-63.7l-1.4-32.1L636.2,237.7z"/>
<path class="st10" d="M669.3,160c0,0,16,40.8,6.8,48.6c-9.2,7.7,51.5-13.1,51.5-13.1l-1.4-5.4c0,0-19.9-7.7-10.2-30.1
	C725.6,137.6,669.3,160,669.3,160z"/>
<path class="st12" d="M669.3,160c0,0,16,40.8,6.8,48.6c-9.2,7.7,51.5-13.1,51.5-13.1l-1.4-5.4c0,0-19.9-7.7-10.2-30.1
	C725.6,137.6,669.3,160,669.3,160z"/>
<path class="st11" d="M644,705.3c0,0-6.8-2-10.7,2.9s-18.5,17-18.5,17s-28.2-2.9-32.1,11.2c-3.9,14.1,44.2,14.1,55.9,10.7
	c11.7-3.4,14.1,0,14.1,0s35.9,2.9,35.9-2.9s-3.4-25.8-3.4-25.8L644,705.3z"/>
<path class="st11" d="M758.2,738l-6.3,19.4c0,0-19,26.2-8.3,31.6s48.6,10.7,48.6-3.4v-26.7c0,0-3.9-19-7.7-20.9
	C780.7,736.1,758.2,738,758.2,738z"/>
<path class="st9" d="M650.9,388.6c0,0-20.5,17.8-20,20.2c0.5,2.5,10.2,158.5,10.2,158.5l5.4,101.1c0,0-6.8,23.8-3.4,29.1
	c3.4,5.4-4.9,6.8-4.9,6.8s35,31.6,49.6,18l13.6-176.4l37.5,128.3c0,0,6.3,68,13.6,68s37,1.4,36.4-2.5c-0.5-3.9,1.4-33.6-2-51
	s-26.2-156-26.2-156s-2-118.7,3.2-129.9s-2.7-22.8-2.7-22.8l-34.1-13.1l-40.8,4.9L650.9,388.6z"/>
<circle class="st10" cx="692.1" cy="142.4" r="34.1"/>
<path class="st11" d="M774.7,215.8c-3.4-9.7-11.5-16.9-21.4-19.4c-9.8-2.5-19.4-5.7-28.7-9.7c0,0-34.5,16.5-41.3,16.5
	s-6.8-4.3-6.8-4.3s-17.4,18.5-26.7,20.4c-9.2,2-22.8,24.8-18,37.5c3.3,8.1,8.1,15.5,14.1,21.9c0,0-2,68,4.3,80.7
	c0,0-15.6,29.6-0.9,31.6c14.7,2,70.5-4.9,80.2,2s27.7-1.4,30.1,7.7c2.5,9.2,7.7,11.2,7.7,11.2s8.3-13.1,3.4-20.9
	C766,383.1,774.7,215.8,774.7,215.8z"/>
<path class="st10" d="M738.8,398.6l-7.7,4.9c0,0,8.3,28.7,11.7,29.6s11.5-24.6,11.5-24.6L738.8,398.6z"/>
<path class="st9" d="M665.2,155.4c1.1,0.5,2.6-0.3,3.3-1.3c2.6-4.1-2.2-9.5-1.1-14.2c0.8-3.8,5.2-6.1,6.1-9.9
	c0.8-3.7-1.8-7.8,0-11.3c1.4-2.6,5-3.3,7.8-2.9c3,0.4,5.8,1.8,8.8,2c3.9,0.2,7.7-1.5,11.7-2.4s8.6-0.5,10.9,2.7c2.9,4.2,0,10,0.9,15
	c0.8,3.9,10,6.8,10.8,4c2-6.3,1.5-13-1.1-19c-1.1-2.6-2.7-5-3.2-7.7c-0.7-3.7,0.4-7.7-0.8-11.4c-1.7-4.9-7.1-7.3-12.3-7.8
	c-5.1-0.5-10.3,0.4-15.4-0.3c-4.5-0.6-9-2.7-13.5-2.4c-5.5,0.3-10.3,3.9-14.1,7.8c-3.8,4-7,8.6-11.4,12c-1.3,0.9-2.6,2-3.6,3.1
	c-2.2,2.7-2.5,6.5-1.9,9.9s2,6.7,2.5,10.1c0.5,3.2,0.4,6.5,0.6,9.8c0.2,3.3,0.9,6.6,2.9,9.2c1.5,2.2,4.1,3.5,6.8,3.5
	c0.9,0,1.7-0.8,2.6-0.6C663.7,153.8,664.2,154.9,665.2,155.4z"/>
<path class="st12" d="M755.5,224.4l15.8-8.5c0,0,38.4,91.4,29.1,116.7c-9.2,25.3-44.7,77.3-44.7,77.3s-28.2-5.8-25.3-11.7
	c2.9-5.8,21.9-43.3,23.3-48.1c1.4-4.9,11.2-36.4,6.8-39.9c-4.3-3.4-12.9-82.4-12.9-82.4L755.5,224.4z"/>
<path class="st11" d="M755.3,210.5l19.4,5.4c0,0,38.4,91.4,29.1,116.7c-9.2,25.3-44.7,77.3-44.7,77.3s-28.2-5.8-25.3-11.7
	c2.9-5.8,21.9-43.3,23.3-48.1c1.4-4.9,11.2-36.4,6.8-39.9c-4.3-3.4-25.3-87.4-25.3-87.4L755.3,210.5z"/>
<path class="st2" d="M965.3,287.3c0,79.4-111,143.7-248,143.7s-248-64.3-248-143.7"/>
<path class="st2" d="M920.2,433.1c-55.4,29.8-127.7,48-206.9,48c-75.9,0-145.5-16.6-200-44.4"/>
<path class="st2" d="M841.2,113c105.5,27.8,180.7,88.7,187.6,160.5"/>
<path class="st2" d="M412.5,226.9c17.8-32.6,50.3-61.4,92.8-83.5"/>
<path class="st13" d="M630.7,576.7h201.7c40-67.2,40-134.5,0-201.7H630.7C686.4,442.2,686.4,509.4,630.7,576.7z"/>
<rect x="697.4" y="413.3" class="st4" width="113.7" height="14.5"/>
<rect x="688.6" y="456.5" class="st5" width="150.5" height="4.9"/>
<rect x="688.6" y="481.4" class="st5" width="150.5" height="4.9"/>
<path class="st13" d="M545.1,439.7H343.3c-40-67.2-40-134.5,0-201.7H545C489.3,305.1,489.3,372.5,545.1,439.7z"/>
<rect x="365.7" y="262" class="st4" width="113.7" height="14.5"/>
<rect x="340.9" y="301.9" class="st5" width="150.5" height="4.9"/>
<rect x="340.9" y="326.8" class="st5" width="150.5" height="4.9"/>
<rect x="340.9" y="351.6" class="st5" width="150.5" height="4.9"/>
<rect x="340.9" y="376.5" class="st5" width="150.5" height="4.9"/>
<path class="st13" d="M874.9,346.8h201.7c40-67.2,40-134.5,0-201.7H874.9C930.8,212.2,930.8,279.5,874.9,346.8z"/>
<rect x="939.3" y="165" class="st4" width="113.7" height="14.5"/>
<rect x="927.3" y="205" class="st5" width="150.5" height="4.9"/>
</svg>
