<?xml version="1.0" encoding="utf-8"?>
<!-- Generator: Adobe Illustrator 23.0.1, SVG Export Plug-In . SVG Version: 6.00 Build 0)  -->
<svg version="1.1" id="Calque_1" xmlns="http://www.w3.org/2000/svg" xmlns:xlink="http://www.w3.org/1999/xlink" x="0px" y="0px"
	 viewBox="0 0 1420 830" style="enable-background:new 0 0 1420 830;" xml:space="preserve">
<style type="text/css">
	.st0{display:none;fill:#17CAD1;}
	.st1{fill:#F2F2F2;}
	.st2{fill:#CECECE;}
	.st3{fill:#2F2E41;}
	.st4{fill:#FFB9B9;}
	.st5{opacity:0.1;enable-background:new    ;}
	.st6{fill:#FC5858;}
	.st7{fill:#A0616A;}
	.st8{fill:#3F3D56;}
	.st9{fill:#575A89;}
	.st10{fill:#17CAD1;}
	.st11{fill:#57B894;}
	.st12{fill:#FFC1C7;}
	.st13{fill:#CBCEDA;}
</style>
<path class="st0" d="M280.1,464.6c0,0,10.4-7.4,21.1-2.8c0,0-3,6.4-16.4,6.3L280.1,464.6z"/>
<path class="st0" d="M278.8,465c0,0-2.8,12.5,5.7,20.5c0,0,4.7-5.3-0.6-17.5L278.8,465z"/>
<path class="st0" d="M265.1,453.7c0,0,0.4-10.5,24.2-7.9c0,0,0.4,6.8-7.8,10.3S269.3,457,265.1,453.7z"/>
<ellipse class="st1" cx="918.7" cy="787.2" rx="475.3" ry="42.8"/>
<rect x="652.6" class="st1" width="540.6" height="366.1"/>
<rect x="998.6" y="33.5" class="st1" width="160.1" height="174.4"/>
<rect x="745.6" y="33.5" class="st2" width="154.3" height="10.5"/>
<rect x="998.6" y="234.8" class="st2" width="54.6" height="10.5"/>
<rect x="1000.5" y="254" class="st2" width="156.2" height="10.5"/>
<rect x="713.9" y="71.9" class="st2" width="222.4" height="10.5"/>
<rect x="713.9" y="101.6" class="st2" width="222.4" height="10.5"/>
<rect x="713.9" y="131.3" class="st1" width="222.4" height="10.5"/>
<rect x="713.9" y="161" class="st1" width="222.4" height="10.5"/>
<rect x="713.9" y="190.7" class="st1" width="222.4" height="10.5"/>
<rect x="713.9" y="220.4" class="st1" width="222.4" height="10.5"/>
<rect x="713.9" y="250.2" class="st1" width="222.4" height="10.5"/>
<path class="st3" d="M1022.6,133.2c2.4-1.7,5-3,7.8-3.9c17.5-6.5,35.9-10.5,54.6-11.9c16.2-1.2,33.8,0.2,46.5,10.4
	c2,1.4,3.6,3.3,4.7,5.5c1.6,3.4,1.1,7.4,0.6,11.2c-0.1,1.5-0.5,2.9-1.1,4.2c-1.7,3.2-5.9,4.4-9.6,4c-3.6-0.4-7.1-1.9-10.7-2.6
	c-2.2-0.4-4.5-0.6-6.7-0.7l-22.6-1.2c-14-0.8-28.3-1.5-42,1.3c-4.2,0.8-8.3,2.2-12.1,4.2c-3.1,1.8-5.3,4.3-8.2,1
	C1018.7,149,1015.9,138.4,1022.6,133.2z"/>
<path class="st1" d="M1057.6,143.1c0,0,30.4-13.6,41.9,2.1c11.5,15.7-6.3,9.4-6.3,9.4l-19.9,6.3l-22-4.2L1057.6,143.1z"/>
<path class="st4" d="M1059.2,133.2c0,0,4.2,19.9,1,25.1c-3.1,5.2,17.8,12.6,17.8,12.6l19.9-8.4c0,0-5.2-32.5,0-38.7L1059.2,133.2z"
	/>
<path class="st5" d="M1059.2,133.2c0,0,4.2,19.9,1,25.1c-3.1,5.2,17.8,12.6,17.8,12.6l19.9-8.4c0,0-5.2-32.5,0-38.7L1059.2,133.2z"
	/>
<path class="st4" d="M1107.4,113.3c0,17.3-14.1,31.4-31.4,31.4c-1.9,0-3.7-0.2-5.6-0.5c-17.1-3.1-28.4-19.4-25.3-36.5
	s19.4-28.4,36.5-25.3C1096.5,85.1,1107.4,98.1,1107.4,113.3z"/>
<path class="st1" d="M1126.3,208.9h-100.2l2.3-9.9l9.8-42.9l11.4-7.7l0,0l5.3-3.6l2.7-1.8c0,0,1.6,0.7,3.4,1.7
	c0.5,0.3,1.1,0.6,1.6,0.9c0,0,0,0,0,0c0.9,0.5,1.7,1.1,2.5,1.7c0.1,0.1,0.3,0.2,0.4,0.4c2,2,7.8,12.6,17.4,7.2
	c0.5-0.3,1-0.6,1.4-0.9c2.5-1.7,4.9-3.6,7.2-5.7c2-1.8,3.3-3.3,4.4-4.3c0.5-0.5,1-0.9,1.6-1.2c0.5-0.2,1-0.4,1.5-0.4
	c3.1,0,7.3,6.3,7.3,6.3l0.1,0.4l0,0l13.2,39.7L1126.3,208.9z"/>
<path class="st3" d="M1026.1,208.9h30.4c0.1-3.5-0.1-7-0.5-10.5c-0.9-7-3.2-13.8-4.6-20.7c-1.3-6.1-1.9-12.2-1.8-18.4
	c0-0.9,0-1.7,0.1-2.6c0.1-2,0.6-3.9,1.7-5.6c0.7-1.1,1.7-2,2.5-3.1c0.3-0.3,0.5-0.7,0.7-1.1v0c0.1-0.2,0.2-0.4,0.3-0.6
	c0.2-0.5,0.3-0.9,0.3-1.4c0.2-3.2-2.7-6.2-5.8-7.5c-4.3-1.6-9.1-1.8-13.6-0.5c-4.4,1.3-8.7,3-12.7,5.2c-1.4,0.7-2.7,1.4-4,2.1
	c-1.6,0.9-3,2-4.3,3.3c-3.3,3.4-4.7,8.1-5.8,12.6c-1.1,3.5-1.5,7.1-1.1,10.7c0,0.1,0,0.2,0.1,0.4c1.1,6,6,10.5,8.6,16
	c3,6.4,2.8,13.8,1.6,20.8c-0.1,0.4-0.1,0.7-0.2,1.1L1026.1,208.9L1026.1,208.9z"/>
<path class="st3" d="M1149.7,170.6c-3.8,12.5-6.6,25.4-8.3,38.3h-43.3c-1.1-3.1-2.3-6.2-3.4-9.3c-0.9-2.3-1.7-4.7-2.3-7.1
	c-0.7-2.8-1-5.7-1-8.6c0-0.7,0-1.4,0.1-2.1c0,0,0,0,0,0c0.3-3.6,1.1-7.2,2.5-10.6c0.6-1.5,1.4-3,2.2-4.5c2-3.6,4.4-7.1,6.6-10.6
	c1.3-2.2,2.5-4.5,3.5-6.8c0,0,0,0,0,0c1.3-3,2-6.3,2-9.5c-0.1-4.2-7.2-11.6,0.6-10.9c10.6,1,19.7,7.1,28,14c2.2,1.9,4.4,3.8,6.5,5.7
	c3.3,3,6.7,6.2,7.7,10.5c0.2,0.7,0.3,1.4,0.3,2.1C1151.5,164.3,1150.9,167.6,1149.7,170.6z"/>
<path class="st4" d="M1084.9,159c-1.1-2.9-2.8-5.6-4.9-7.9c-2.2-1.8-4.7-3.1-7.5-3.8c-3.6-1-7.3-1.6-11-1.6c-4.4,0-9.6,1.2-11.5,5.2
	c-1.5,3.2-0.3,7,1.2,10.1c0.6,1.6,1.7,3.1,3.1,4.2c1.9,1.3,4.4,1.3,6.7,1.7c3.5,0.9,6.8,2.4,9.8,4.5l7.8,4.7l13.3,8.1
	c-0.4-0.2-0.2-9.4-0.6-10.9C1089.9,168.5,1086.9,163.6,1084.9,159z"/>
<path class="st3" d="M1106.6,96.9c-0.6-1.9-1.8-3.5-3.5-4.5c0.1-2-0.2-4-0.7-6c-1.9-5.6-6.4-5.3-10.7-7.8c-1.8-1.1-1.7-2-2.7-3.8
	c-1.3-2.3-3.1-4.2-5.4-5.6c-2.7-1.7-5.6-3.5-8.8-3.7c-6.8-0.5-12,5.9-18.5,8c-2.9,0.9-5.9,0.9-8.8,1.8c-2.9,0.9-5.7,2.9-6.2,5.9
	c-0.2,1.4,0.2,2.8,0,4.1c-0.4,2.7-2.8,4.6-4.4,6.9c-3.5,4.9-3.1,11.9-0.3,17.3c0.6,1.1,1.3,2.2,2,3.2c0.2,2.5,1,5,2.2,7.3
	c2.8,5.4,7.7,9.4,12.8,12.7c-0.4-1.8-0.7-3.6-0.8-5.4c-0.1-0.6,0-1.2,0.2-1.8c0.6-1.2,2.1-1.5,3.2-2.1c2.4-1.3,3.3-4.3,3.4-7
	s-0.5-5.4-0.2-8.1c0-1.3,0.6-2.4,1.5-3.3c0.9-0.5,1.9-0.7,2.9-0.7c4.8-0.2,9.9-0.3,14.2-2.6c1.4-0.9,2.9-1.7,4.4-2.2
	c3.6-0.9,7.3,1.6,9.4,4.7s3.1,6.8,5.1,10c1.9,3.2,5.3,6.1,9,5.7c0.4,0,0.8-0.2,1.1-0.5c0.2-0.3,0.2-0.6,0.2-0.9l0.2-14.2
	C1107.5,101.7,1107.2,99.3,1106.6,96.9z"/>
<path class="st3" d="M1023.7,192.1c0.7,5.6,1.1,11.2,1.2,16.9h-26.4v-22.2c0.1-0.5,0.3-1.1,0.5-1.6c1.6-5.1,5.1-9.3,8.1-13.8
	c0.1-0.2,0.3-0.4,0.4-0.7c1.3-1.9,2.4-3.8,3.3-5.9c0.4-1,1.1-5.9,1.8-6.4c3.1-1.8,5.7,5.9,6.1,7.7c1.5,6.1,2.9,12.3,3.9,18.6
	C1023.1,187.2,1023.4,189.6,1023.7,192.1z"/>
<path class="st3" d="M1156.9,208.9h-60.5c-0.5-1.2-1-2.4-1.6-3.6c-3.8-8.5-8.7-16.5-14.5-23.8c-1-1-1.6-2.2-1.8-3.6
	c0-0.6,0.1-1.1,0.4-1.6c0.9-1.7,3.4-2.7,5.3-3.5c2-0.8,3.9-2,5.5-3.5c1.4-1.3,2.5-2.9,3.2-4.7c0.2-0.5,0.3-1.1,0.4-1.6
	c0.3,0.4,0.6,0.7,0.8,1.1c0.7,0.9,1.4,1.8,2.1,2.7c6.7,8.6,14.1,17.1,23.3,22.2c2.4,1.3,5,2.4,7.6,3.2c0.5,0.2,1.1,0.2,1.6,0
	c0.4-0.3,0.6-0.8,0.7-1.3c0.8-3.5,1.1-7,1.7-10.5c1.1-6.4,3.2-12.5,6.3-18.2c1.7-3.2,7.3-14.9,10.8-7.5c1,2.1,2,4.2,3.1,6.4
	c0.6,1.4,1.3,2.7,1.9,4c2.4,4.3,3.5,9.2,3.2,14.1C1156.7,189.2,1156.8,199.1,1156.9,208.9z"/>
<path class="st5" d="M1026.1,208.9h5.2l-3-9.9l-4.3-14.2c0,2.4-0.1,4.8-0.4,7.2c-0.6,4.9-2.1,9.7-4.2,14.2c-0.4,0.9-0.9,1.8-1.2,2.7
	L1026.1,208.9L1026.1,208.9z"/>
<path class="st5" d="M1132.9,178.6c-0.7,2-0.1,4.2,0.5,6.2c1.6,5.9,2.4,12,2.3,18.2c0.1,0.4-0.1,0.7-0.5,0.8c-0.1,0-0.2,0-0.3,0
	c-2.4,0.1-5.2,0.2-6.8-1.6L1132.9,178.6z"/>
<rect x="26" y="3.8" class="st1" width="540.6" height="366.1"/>
<rect x="319.2" y="37.3" class="st1" width="154.3" height="10.5"/>
<rect x="62.4" y="238.6" class="st2" width="54.6" height="10.5"/>
<rect x="62.4" y="257.8" class="st2" width="156.2" height="10.5"/>
<rect x="282.8" y="75.7" class="st2" width="222.4" height="10.5"/>
<rect x="282.8" y="105.4" class="st2" width="222.4" height="10.5"/>
<rect x="282.8" y="135.1" class="st2" width="222.4" height="10.5"/>
<rect x="282.8" y="164.8" class="st2" width="222.4" height="10.5"/>
<rect x="282.8" y="194.5" class="st2" width="222.4" height="10.5"/>
<rect x="282.8" y="224.2" class="st2" width="222.4" height="10.5"/>
<rect x="282.8" y="253.9" class="st2" width="222.4" height="10.5"/>
<path class="st6" d="M216.2,212.7h-20.8c-1.6-4.3-3-8.7-4.3-13.1c-0.8-5.2-3.2-10-6.8-13.8c-1.1-1.2-2.1-2.6-2.9-4
	c-1.8-3.5-2.4-7.4-1.8-11.3c0.1-1.1,0.3-2.1,0.5-3.2c0.9-4.1,2.4-8,3.7-12c0.5-1.7,2-2.8,3.7-3.1c1.4-0.2,2.8-0.1,4.1,0.5
	c0.3,0.1,0.6,0.3,0.8,0.4c2.3,1.4,3.5,4.2,4.4,6.7c4.3,11.7,8.7,23.3,13,35c0.8,2.3,1.7,4.5,2.5,6.8c1.2,3.3,2.5,6.7,3.5,10.1
	C216,212.1,216.1,212.4,216.2,212.7z"/>
<path class="st3" d="M129.5,59.3c-5.2,1.7-9.9,5.8-10.9,11.2c-0.5,2.5-0.2,5.1-0.6,7.6c-1,5.8-5.5,10.2-9.7,14.3
	c-4.2,4.1-8.5,8.9-8.8,14.7c-0.3,6.4,4.3,12.4,3.5,18.8c-0.9,7.4-8.8,12.2-10.7,19.4c-1.3,4.8,0.3,10,2.9,14.3
	c5,8.1,13.4,13.6,22.5,16.6c9,2.9,18.7,3.6,28.2,3.7c11.6,0.1,24.1-0.9,32.8-8.5c5-4.4,8.1-10.5,8.7-17.1c0.8-8.8-2.9-18-0.3-26.5
	c1.6-5.4,5.6-10.2,5-15.8c-0.6-5.4-5.3-9.3-8.6-13.7c-3-4.1-4.9-8.9-6.7-13.7l-6.2-16.3c-1.2-3.2-2.6-6.6-5.3-8.7
	c-5.1-3.9-13.2-3.2-19.2-2.4C140.7,57.9,134.8,57.5,129.5,59.3z"/>
<path class="st7" d="M134.3,113.1c0,0,0.6,18.2-1.2,20s7.3,13.9,7.3,13.9l16.4-0.6l8.5-6.7l-7.3-9.7c0,0-3-15.7-0.6-19.4
	S134.3,113.1,134.3,113.1z"/>
<path class="st5" d="M134.3,113.1c0,0,0.6,18.2-1.2,20s7.3,13.9,7.3,13.9l16.4-0.6l8.5-6.7l-7.3-9.7c0,0-3-15.7-0.6-19.4
	S134.3,113.1,134.3,113.1z"/>
<circle class="st7" cx="144.3" cy="98.3" r="21.8"/>
<path class="st6" d="M155.5,212.7h17.7c0.7-1.2,1.3-2.4,2-3.6v0c0.8-1.4,1.9-2.5,3.2-3.4c0.8-0.4,1.6-0.9,2.4-1.4
	c0.7-0.8,1.2-1.7,1.5-2.7c1.2-3.8,1.9-7.8,2-11.8c0-1.3,0-2.7,0.1-4c0-1,0.2-2.1,0.4-3.1c0.6-2.1,1.5-4.1,2.6-5.9
	c2.4-4.4,4.8-8.7,7.2-13.1c0.4-1.2,0.6-2.5,0.5-3.8c-0.1-1.8-0.6-3.5-1.6-4.9c-0.3-0.6-0.7-1.2-1.1-1.8c-1.5-2.4-3.2-4.6-5.1-6.6
	c-4.1-4.3-9.1-7.7-14.6-9.9c-0.7-0.2-1.4-0.6-2-1c-0.7-0.6-1.3-1.3-1.8-2.2c-1.9-2.9-4.3-6.1-7.7-6c-1.1-0.6-2.5-0.7-3.7-0.2
	c-0.2,0-0.4,0.1-0.5,0.2c-1.3,0.6-2.6,1.3-3.8,2c-3.2,1.7-6.8,2.3-10.4,1.9c-0.4,0-0.8-0.1-1.2-0.3c-0.4-0.3-0.8-0.6-1.1-0.9
	c-1.8-1.5-4.2-1.8-6.4-1c-1,0.4-1.9,1-2.5,1.8c-0.6,0.8-1.1,1.8-1.8,2.5c-1.8,1.9-4.8,2-7.4,2c-5.5-0.2-11,0.4-16.4,1.5
	c-4.7,1-9.1,3.2-12.9,6.2l0,0c-0.5,0.4-1,0.9-1.5,1.4c-1.1,1-2,2.3-2.5,3.6c-0.7,1.9-0.6,4-1.3,5.9c-0.7,2.1-2.3,3.9-3,6
	c-0.5,1.6-0.4,3.4-1.3,4.9c0,0,0.1,0.1,0.1,0.1c3.5,3.1,6.5,7.1,10,10.1c2,1.5,3.7,3.5,5.1,5.7c0.3,0.5,0.5,1,0.6,1.5
	c0.4,1.8,0.6,3.7,0.5,5.6c0.4,9,5.3,17.1,10.7,24.2c0.1,0.1,0.2,0.3,0.3,0.4L155.5,212.7z"/>
<path class="st6" d="M98.6,181c-0.8,5.7-1.7,11.4-2.5,17.2c-0.4,3.1-1,6.1-1.7,9.1c-0.5,1.8-1.1,3.7-1.6,5.5h-25
	c0-1,0.1-2.1,0.2-3.1c0.6-3.7,1.7-7.3,3.1-10.7c2.9-7.8,5.8-15.7,8.7-23.5c1.2-3.3,2.3-6.8,3.7-10.2c0.2-0.6,0.5-1.2,0.8-1.8
	c1.4-3.2,5.5-1.9,8.4-1.4c0.8,0.1,1.6,0.3,2.4,0.7c0.9,0.5,1.7,1.2,2.2,2.1c2.8,4.2,2.2,9.7,1.5,14.7
	C98.8,179.9,98.7,180.4,98.6,181z"/>
<path class="st3" d="M175.2,209.1c0,0.1,0.5,1.6,1.1,3.6h-20.8C165.8,210.9,175.2,209.1,175.2,209.1L175.2,209.1z"/>
<ellipse class="st3" cx="146.1" cy="85.6" rx="23.6" ry="12.7"/>
<rect x="372.3" y="138.6" class="st8" width="540.6" height="366.1"/>
<ellipse class="st5" cx="834.2" cy="473.1" rx="63.3" ry="6.7"/>
<rect x="406.8" y="172.1" class="st1" width="160.1" height="174.4"/>
<path class="st3" d="M458.3,252.2c1.1,0.3,2.2-0.2,2.8-1.1c2.2-3.5-1.9-8-1-12c0.7-3.2,4.4-5.2,5.1-8.4c0.7-3.1-1.5-6.7,0-9.5
	c1.2-2.2,4.2-2.8,6.7-2.4s4.9,1.5,7.4,1.6c3.4,0.2,6.5-1.3,9.8-2s7.3-0.4,9.2,2.3c2.5,3.5,0,8.4,0.8,12.7c0.7,3.4,3.5,6.1,3.6,9.6
	c0,1.2-3.2,0.2-3,1.4s-1.3,0.1-0.1,0c1-0.2,1.7-1.1,1.8-2.2c0.1-1,2-1.3,2-2.4c-0.1-2.4,4.2-0.8,5-3c1.6-5.3,1.3-11-0.9-16
	c-1.2-2.1-2.1-4.3-2.7-6.5c-0.6-3.1,0.4-6.5-0.7-9.6c-1.4-4.1-6-6.2-10.3-6.6c-4.3-0.4-8.7,0.3-13-0.3c-3.8-0.6-7.6-2.2-11.4-2
	c-4.6,0.3-8.7,3.3-11.9,6.6c-3.2,3.4-5.9,7.2-9.6,10.1c-1.1,0.8-2.2,1.7-3.1,2.7c-1.9,2.3-2.1,5.5-1.5,8.4s1.6,5.6,2.1,8.5
	c0.4,2.7,0.3,5.5,0.5,8.3c0,2.8,0.9,5.5,2.4,7.8c1.3,1.8,3.5,2.9,5.7,3c0.8,0,1.4-0.7,2.2-0.5C457,250.9,457.4,251.8,458.3,252.2z"
	/>
<path class="st9" d="M423.1,347.5c0.7-9.6,1.2-16.8,1.2-16.8l4.5-11.9l14.5,28.7L423.1,347.5z"/>
<path class="st5" d="M423.1,347.5c0.7-9.6,1.2-16.8,1.2-16.8l4.5-11.9l14.5,28.7L423.1,347.5z"/>
<path class="st7" d="M456.8,253.2c0,0,13.5,34.5,5.7,41s43.5-11.1,43.5-11.1l-1.2-4.5c0,0-16.8-6.6-8.6-25.4
	C504.4,234.3,456.8,253.2,456.8,253.2z"/>
<path class="st5" d="M456.8,253.2c0,0,13.5,34.5,5.7,41s43.5-11.1,43.5-11.1l-1.2-4.5c0,0-16.8-6.6-8.6-25.4
	C504.4,234.3,456.8,253.2,456.8,253.2z"/>
<circle class="st7" cx="476" cy="238.4" r="28.7"/>
<path class="st9" d="M545.8,300.4c0,0-0.1,2.3-0.3,6.3c-0.4,8.1-1.2,23.3-1.9,40.9H432.2c-2.9-3.9-5.3-8.2-7.1-12.7
	c-0.5-1.3-0.8-2.7-0.8-4.1c-0.6-10.9,9.1-26.1,16-27.5c7.8-1.6,22.6-17.2,22.6-17.2c0.1,1.2,0.8,2.3,1.9,2.8v0
	c1.2,0.6,2.5,0.9,3.9,0.8c4.8,0,26-9.8,32.8-13c1.3-0.6,2.1-1,2.1-1c7.8,3.4,15.9,6.1,24.2,8.2C536.1,286,542.9,292.2,545.8,300.4z"
	/>
<path class="st3" d="M453.4,249.3c1.1,0.3,2.2-0.2,2.8-1.1c2.2-3.5-1.9-8-1-12c0.7-3.2,4.4-5.2,5.1-8.4c0.7-3.1-1.5-6.7,0-9.5
	c1.2-2.2,4.2-2.8,6.7-2.4s4.9,1.5,7.4,1.6c3.4,0.2,6.5-1.3,9.8-2s7.3-0.4,9.2,2.3c2.5,3.5,0,8.4,0.8,12.7c0.7,3.4,8.5,5.7,9.2,3.4
	c1.6-5.3,1.3-11-0.9-16c-1.2-2.1-2.1-4.3-2.7-6.5c-0.6-3.1,0.4-6.5-0.7-9.6c-1.4-4.1-6-6.2-10.3-6.6c-4.3-0.4-8.7,0.3-13-0.3
	c-3.8-0.6-7.6-2.2-11.4-2c-4.6,0.3-8.7,3.3-11.9,6.6c-3.2,3.4-5.9,7.2-9.6,10.1c-1.1,0.8-2.2,1.7-3.1,2.7c-1.9,2.3-2.1,5.5-1.5,8.4
	c0.5,2.9,1.6,5.6,2.1,8.5c0.4,2.7,0.3,5.5,0.5,8.3c0,2.8,0.9,5.5,2.4,7.8c1.3,1.8,3.5,2.9,5.7,3c0.8,0,1.4-0.7,2.2-0.5
	C452.1,248,452.5,248.9,453.4,249.3z"/>
<path class="st5" d="M560,347.5h-32.5c-2.5-18.1-4.5-37.1-4.5-37.1l6.6-2.9l13.3-7.2c0,0,1,2.3,2.5,6.3
	C548.8,315.1,554.9,331,560,347.5z"/>
<path class="st9" d="M562.9,347.5h-36.7c-5.4-19.8-10.8-41.4-10.8-41.4l14-10.3l16.4,4.5C545.8,300.4,555.4,323.2,562.9,347.5z"/>
<rect x="665.5" y="172.1" class="st10" width="154.3" height="10.5"/>
<rect x="408.7" y="373.4" class="st10" width="54.6" height="10.5"/>
<rect x="408.7" y="392.5" class="st10" width="156.2" height="10.5"/>
<rect x="629.1" y="210.4" class="st1" width="222.4" height="10.5"/>
<rect x="629.1" y="240.2" class="st1" width="222.4" height="10.5"/>
<rect x="629.1" y="269.9" class="st1" width="222.4" height="10.5"/>
<rect x="629.1" y="299.6" class="st1" width="222.4" height="10.5"/>
<rect x="629.1" y="329.3" class="st1" width="222.4" height="10.5"/>
<rect x="629.1" y="359" class="st1" width="222.4" height="10.5"/>
<rect x="629.1" y="388.7" class="st1" width="222.4" height="10.5"/>
<path class="st11" d="M894.4,390.1l-60.8,60.8L808,425.4c-3.4-3.4-8.9-3.4-12.4,0l-0.9-1.4c-3.4,3.4-2.5,10.3,0.9,13.7l33.1,33.1
	c2.6,2.6,6.8,2.6,9.4,0l68.5-68.4c3.4-3.4,4.7-9.7,1.2-13.1l0,0C904.5,386,897.8,386.7,894.4,390.1z"/>
<path class="st5" d="M894.4,390.1l-60.8,60.8L808,425.4c-3.4-3.4-8.9-3.4-12.4,0l-0.9-1.4c-3.4,3.4-2.5,10.3,0.9,13.7l33.1,33.1
	c2.6,2.6,6.8,2.6,9.4,0l68.5-68.4c3.4-3.4,4.7-9.7,1.2-13.1l0,0C904.5,386,897.8,386.7,894.4,390.1z"/>
<path class="st11" d="M894.4,387.4l-60.8,60.8L808,422.7c-3.4-3.4-8.9-3.4-12.4,0l0,0c-3.4,3.4-3.4,8.9,0,12.4v0l33.1,33.1
	c2.6,2.6,6.8,2.6,9.4,0l68.5-68.4c3.4-3.4,3.4-8.9,0-12.3c0,0,0,0,0,0l0,0C903.3,384,897.8,384,894.4,387.4z"/>
<path class="st5" d="M1341.6,739.5c0,68.5-95.5,47.3-212.5,47.3S918,808.1,918,739.5s95.5-83.4,212.5-83.4S1341.6,671,1341.6,739.5z
	"/>
<path class="st8" d="M1341.6,726.7c0,68.5-95.5,47.3-212.5,47.3S918,795.2,918,726.7s95.5-83.4,212.5-83.4
	S1341.6,658.2,1341.6,726.7z"/>
<path class="st12" d="M942.2,512l-4.3,5c0,0-52.6,4.9-50.5,13.5c2.1,8.5,63.4-11.4,63.4-11.4L942.2,512z"/>
<path class="st10" d="M1037.6,507.7c0,0-56.3,19.9-86.9,11.4l14.2,28.5c0,0,72.6-2.1,85.4-15
	C1063.2,519.8,1037.6,507.7,1037.6,507.7z"/>
<path class="st5" d="M1037.6,507.7c0,0-56.3,19.9-86.9,11.4l14.2,28.5c0,0,72.6-2.1,85.4-15C1063.2,519.8,1037.6,507.7,1037.6,507.7
	z"/>
<circle class="st12" cx="999.5" cy="317.3" r="37.7"/>
<path class="st12" d="M1031.7,352.7c1.3,2.5,2.9,4.8,4.9,6.8c5.2,5.6,11.3,10.2,18.2,13.6c-21.4,4.4-43.1,7.6-64.8,9.6
	c2.3-8.1-0.7-16.7-4.8-24.1c-4.1-7.4-9.2-14.2-11.8-22.2l25.5,0.7c4.6,0.1,9.3,0.3,13.9,0c3.5-0.2,9.2-2.2,12.4-1.5
	C1032.1,337.2,1028.7,346.6,1031.7,352.7z"/>
<path class="st3" d="M1117.4,529.8l21.4,25.6c0,0,35.6,83.3-42,91.9c-77.6,8.5-135.3-6.4-135.3-6.4s-31.3-15-32-3.6
	c-0.7,11.4-3.6,43.4-20.6,74.8l-15,34.2c0,0-7.8,7.8-5.7,18.5s-47.7,14.2-47,0c0,0,7.1-12.1,7.1-19.2c0-7.1,11.4-24.2,11.4-24.2
	l20.6-102.5c0,0-1.4-52.7,47-42.7s117.5-2.1,117.5-2.1l15.7-54.8L1117.4,529.8z"/>
<path class="st5" d="M1117.4,529.8l21.4,25.6c0,0,35.6,83.3-42,91.9c-77.6,8.5-135.3-6.4-135.3-6.4s-31.3-15-32-3.6
	c-0.7,11.4-3.6,43.4-20.6,74.8l-15,34.2c0,0-7.8,7.8-5.7,18.5s-47.7,14.2-47,0c0,0,7.1-12.1,7.1-19.2c0-7.1,11.4-24.2,11.4-24.2
	l20.6-102.5c0,0-1.4-52.7,47-42.7s117.5-2.1,117.5-2.1l15.7-54.8L1117.4,529.8z"/>
<path class="st3" d="M1037.3,527.9c0,0,65.2-24.5,101.5,27.5c0,0,9.3,80.5-27.8,84c-37,3.6-85.4,2.8-96.8-9.3
	c-11.4-12.1-83.3-46.3-83.3-46.3s-35.8-18.3-42.8,5.5s-7.7,29.4-7.7,29.4s-37,27.1-52,32c0,0-10,14.2-15.7,14.2
	c-5.7,0-40.6,7.8-37-18.5l57.7-52.7l57.7-56.3c0,0,16.4-24.2,58.4-11.4c27.9,8.3,56.2,15.2,84.7,20.6L1037.3,527.9z"/>
<path class="st13" d="M885.9,763.3c0,0,13.5,34.2,2.1,38.5c-11.4,4.3-35.6,1.4-35.6,1.4s-28.5-3.6-35.6-2.8c-7.1,0.7-36.3-5-32-16.4
	c4.3-11.4,26.3-8.5,26.3-8.5l19.9-9.3c0,0,2.1-7.1,7.1-4.3C843.2,764.8,857.5,775.5,885.9,763.3z"/>
<path class="st13" d="M811.9,662.2c0,0,15,33.5-9.3,30.6c-24.2-2.8-42.7-7.8-49.8-8.5c-6.8-0.7-26.2-7.3-23.2-20.5
	c0.2-0.9,0.2-1.7,0.2-2.6c0-1.8,2.4-5.2,21.6-4.7c0,0,14.2,0,19.9-10C771.3,646.6,792.7,673.6,811.9,662.2z"/>
<path class="st10" d="M973.5,377.4c0,0,51.3-32,94,0s71.2,178,71.2,178l-99-22.1c0,0-4.3-17.1-10-19.9s-6.4-15-6.4-15
	s-30.6-9.3-28.5-44.9S973.5,377.4,973.5,377.4z"/>
<path class="st10" d="M999.9,378.8h-26.3c0,0-15.7,17.8-17.8,62.7l-8.5,35.6c0,0-17.8,42.7-7.1,49.8c10.7,7.1,31.3,6.4,35.6-7.8
	c4.3-14.2,33.5-96.8,33.5-96.8L999.9,378.8z"/>
<path class="st3" d="M992.3,268.1c13.3-5.5,28.6-3,39.5,6.5c13.7,12.2,16.4,32.1,19.9,50.1s10.4,38,27.4,45c-7.6,1-15.4,0.8-23-0.7
	l25.6,23l-43.2-14.1c-13.6-4.4-27.8-8.9-41.8-6.4c-23.3,4.1-39.4,26-61.8,33.7l2.5-12.1l-15-0.1c3.6-2.7,6.5-6.1,8.6-10.1
	c-1.4-1.7-3.5-2.8-5.7-3c-6.2-39,16.9-77.5,47-102.9c5.9-5,12.5-9.8,20.2-11.1c7.7-1.3,16.6,2.2,19.3,9.5"/>
</svg>
