<?xml version="1.0" encoding="utf-8"?>
<!-- Generator: Adobe Illustrator 23.0.1, SVG Export Plug-In . SVG Version: 6.00 Build 0)  -->
<svg version="1.1" id="Calque_1" xmlns="http://www.w3.org/2000/svg" xmlns:xlink="http://www.w3.org/1999/xlink" x="0px" y="0px"
	 viewBox="0 0 1420 830" style="enable-background:new 0 0 1420 830;" xml:space="preserve">
<style type="text/css">
	.st0{display:none;fill:#17CAD1;}
	.st1{fill:#F2F2F2;}
	.st2{fill:#3F3D56;}
	.st3{fill:none;stroke:#3F3D56;stroke-width:4;stroke-miterlimit:10;}
	.st4{fill:#FC5858;}
	.st5{opacity:0.1;enable-background:new    ;}
	.st6{fill:#656380;}
	.st7{opacity:0.2;enable-background:new    ;}
	.st8{fill:#17CAD1;}
	.st9{opacity:5.000000e-02;enable-background:new    ;}
	.st10{fill:#FFC0C6;}
	.st11{fill:#605D82;}
	.st12{fill:#535070;}
</style>
<path class="st0" d="M389,464.6c0,0,10.4-7.4,21.1-2.8c0,0-3,6.4-16.4,6.3L389,464.6z"/>
<path class="st0" d="M387.7,465c0,0-2.8,12.5,5.7,20.5c0,0,4.7-5.3-0.6-17.5L387.7,465z"/>
<path class="st0" d="M374,453.7c0,0,0.4-10.5,24.2-7.9c0,0,0.4,6.8-7.8,10.3S378.3,457,374,453.7z"/>
<path class="st1" d="M955.5,492.4l8.8-5.5c0.8-0.5,1.6-1.1,2.5-1.6c-38.8-6.7-67.9-39.5-69.7-78.9c-0.6-13.2,1.9-26.3,7.2-38.3
	c10.2-22.8,30-39.7,54-46.5l-0.4,34.6l19.1-37.7c0.1,0,0.2,0,0.2,0c46.3-2.2,85.7,33.7,87.8,80l0,0c0.1,1.6,0,3.2,0,4.7
	c6.6-7.5,12.7-15.7,16.6-24.5c8-17.9,8.2-38.3,7.6-63c-1.2-49-3.4-98.3-6.2-147.6c-41-4.5-72.6-38.2-74.6-79.5
	c-0.1-2.6-0.1-5.1,0-7.6c0-0.6,0-1.2,0.1-1.9c0.2-2.5,0.4-4.8,0.7-7.2c0-0.4,0.1-0.8,0.2-1.1c0.3-2.1,0.7-4,1.2-6
	c0.2-0.7,0.4-1.4,0.5-2.2c0.6-2.2,1.1-4.2,2-6.4c0.2-0.7,0.5-1.3,0.8-2.1c0.6-1.5,1.2-3,2-4.5c0.4-0.8,0.7-1.5,1.1-2.4
	c0.1-0.2,0.2-0.4,0.3-0.6l0,0c18.3-36.1,59.7-54.1,98.7-42.6l-0.5,45l18.8-37.2c31.7,18.1,47.9,54.8,40.1,90.5h0.1
	c-0.1,0.6-0.3,1.1-0.4,1.8c-0.3,1.1-0.5,2.2-0.8,3.3c-0.4,1.4-0.8,2.8-1.3,4.1c-0.3,1-0.7,2.1-1.1,3.1c-0.5,1.4-1.1,2.9-1.9,4.4
	c-0.4,0.8-0.7,1.8-1.1,2.6c-1,2.2-2.3,4.3-3.5,6.4c-0.4,0.7-0.9,1.4-1.3,2.2c-0.9,1.3-1.8,2.8-2.8,4.1c-0.6,0.8-1.2,1.6-1.9,2.5
	c-0.9,1.1-1.9,2.4-2.9,3.4c-0.7,0.8-1.4,1.5-2.2,2.4c-1,1.1-2.1,2.2-3.2,3.2c-0.7,0.7-1.4,1.3-2.2,2.1c-1.2,1.1-2.6,2.2-3.8,3.2
	c-0.6,0.5-1.3,1-2,1.5c-2,1.4-4,2.9-6.2,4.1c-0.4,0.2-0.8,0.4-1.1,0.7c-1.8,1-3.5,2.1-5.5,3c-0.8,0.4-1.6,0.7-2.5,1.1
	c-1.5,0.7-3.1,1.3-4.6,2c-0.9,0.3-1.9,0.6-2.8,0.9c-1.5,0.5-3.1,1-4.7,1.4c-0.9,0.3-1.9,0.5-2.8,0.7c-1.8,0.4-3.5,0.7-5.3,1
	c-0.1,0-0.2,0-0.3,0.1c1.1,20.8,2.2,41.5,3.1,62.3c20.3-41.7,70.5-59,112.2-38.7c1.4,0.7,2.9,1.4,4.3,2.3l-14.8,40.7l30.6-29.3
	c16.4,15,26.1,35.8,27.1,58c0.4,7.7-0.3,15.5-2.2,23.2c-10.6,45.1-55.7,73.2-100.9,62.6c-22.6-5.3-41.9-19.7-53.5-39.7
	c0,2.1,0.1,4.2,0.2,6.4c0.5,21.8,1.2,48.9-9.6,73.1c-7.3,16.4-19.3,29.8-30.9,41.7c-7.6,7.8-15.5,15.3-23.6,22.6
	c-7.9,10.7-18.3,19.4-30.4,25.2c-13.3,10.3-27.1,19.9-41.3,28.8l-8.6,5.6c-8,4.9-16.2,10.1-24.2,15.3c1.4-0.1,2.8-0.3,4.2-0.3
	c36.6-1.8,69.9,20.4,82.7,54.7l-52.5,42.7l57.7-13.4c-0.1,46.4-37.7,84-84.1,83.9c-12.6,0-24.9-2.9-36.2-8.2
	c1.3,1.6,2.6,3.2,3.9,4.8c2.6,3.2,5.1,6.4,7.6,9.6c34.2,43.2,43.7,84.3,26.8,115.6L933.2,806c16.5-30.5-8.2-69.5-24.5-90
	c-2.5-3.1-4.9-6.3-7.5-9.4c-21.8-27.1-46.5-57.9-45.9-95.6C856,554.1,911.2,519.8,955.5,492.4z"/>
<ellipse class="st2" cx="687.3" cy="804.6" rx="536.3" ry="24.7"/>
<path class="st3" d="M1120.6,795.4c3.5-6.5-0.5-14.4-5-20.2c-4.5-5.8-10.1-11.7-10-19.2c0.2-10.6,11.4-16.9,20.4-22.4
	c6.7-4.2,12.8-9.2,18.3-14.7c2.3-2.2,4.2-4.7,5.7-7.5c1.9-4.1,1.8-8.9,1.6-13.4c-0.4-15.1-1.1-30.2-2.3-45.3"/>
<path class="st4" d="M1166.4,651.8c-0.3-5.7-3.4-10.7-8.2-13.5l-3.7,7.3l0.1-8.9c-8.8-2.6-17.9,2.4-20.5,11
	c-0.5,1.9-0.7,3.7-0.7,5.6c0.4,9.1,8.1,16.2,17.3,15.8C1159.7,668.6,1166.7,660.9,1166.4,651.8L1166.4,651.8L1166.4,651.8z"/>
<path class="st4" d="M1136.9,763.6c-4.1,8.1-14.1,11.3-22.2,7.1c-8.1-4.1-11.3-14.1-7.1-22.2c4.1-8.1,14.1-11.3,22.2-7.1
	c3.6,1.9,6.5,5,7.9,8.9l-10.3,8.4l11.3-2.7C1138.7,758.7,1138.1,761.3,1136.9,763.6z"/>
<path class="st4" d="M1128.7,731.5c-9.1,0.4-16.8-6.6-17.3-15.7c0,0,0,0,0-0.1c-0.1-2.6,0.3-5.1,1.4-7.5c2-4.4,5.9-7.8,10.6-9.2
	l-0.1,6.8l3.7-7.4l0,0c9.2-0.4,16.9,6.6,17.3,15.8C1144.9,723.3,1137.9,731.1,1128.7,731.5L1128.7,731.5z"/>
<path class="st4" d="M1168.9,704.7c-9.1,0.4-16.8-6.6-17.3-15.8c-0.4-9.1,6.6-16.8,15.8-17.3c3.1-0.1,6.2,0.6,8.9,2.1l-2.9,8l6-5.8
	c3.2,3,5.1,7,5.4,11.4c0.1,1.5-0.1,3.1-0.4,4.5C1182.4,699.3,1176.2,704.4,1168.9,704.7z"/>
<path class="st5" d="M1164.1,656.1c-3.8,0.4-7.5,1.6-11.3,1.9c-3.8,0.2-8-0.7-10.5-3.7c-1.3-1.6-2-3.6-3.1-5.4c-1-1.6-2.5-3-4.1-3.9
	c-3.9,8.2-0.4,18,7.7,21.9c8.2,3.9,18,0.4,21.9-7.7c0.5-1,0.9-2.2,1.1-3.3C1165.4,656,1164.7,656,1164.1,656.1z"/>
<path class="st5" d="M1168.9,704.7c-9.1,0.4-16.8-6.5-17.3-15.7c-0.1-2.8,0.4-5.5,1.5-7.9c1.3,0.9,2.5,2.1,3.3,3.3
	c1.1,1.8,1.9,3.8,3.3,5.5c2.6,3,7,4,10.9,3.8c4-0.2,7.8-1.3,11.7-1.6c0.5,0,1.1-0.1,1.6-0.1C1182.4,699.2,1176.2,704.4,1168.9,704.7
	z"/>
<path class="st5" d="M1128.7,731.5c-9.1,0.4-16.8-6.6-17.3-15.7c0,0,0,0,0-0.1c-0.1-2.6,0.3-5.1,1.4-7.5c1.3,0.9,2.6,2.1,3.5,3.4
	c1.2,1.9,2.1,3.9,3.5,5.6c2.8,3.1,7.5,4.2,11.7,4.1c4.2-0.1,8-1.1,12.2-1.4C1141.7,726.5,1135.7,731.2,1128.7,731.5z"/>
<path class="st5" d="M1136.9,763.6c-3.7,8.3-13.5,12-21.8,8.3c-8.3-3.7-12-13.5-8.3-21.8c1.3,0.9,2.6,2,3.6,3.2
	c1.5,2,2.6,4.1,4.4,5.9c3.4,3.3,8.9,4.7,13.7,4.8C1131.3,764,1134.2,763.9,1136.9,763.6z"/>
<path class="st6" d="M1095.6,787.9c0,0,13.1-0.4,17-3.2c3.9-2.8,20-6.2,21-1.6s19.6,22.3,4.8,22.4c-14.7,0.1-34.2-2.4-38.1-4.7
	C1096.5,798.4,1095.6,787.9,1095.6,787.9z"/>
<path class="st7" d="M1138.8,803.9c-14.7,0.1-34.2-2.4-38.1-4.7c-3-1.9-4.2-8.3-4.5-11.3h-0.4c0,0,0.8,10.5,4.7,13
	s23.4,4.8,38.1,4.7c4.2,0,5.8-1.5,5.7-3.8C1143.5,803.1,1142,803.9,1138.8,803.9z"/>
<polygon class="st8" points="658.7,782.6 503.3,814.4 499.7,814 363.2,800.3 363.2,627.2 530.4,599 651.6,613.1 651.7,613.8 
	651.7,614.2 "/>
<polygon class="st5" points="658.7,782.6 503.3,814.4 499.7,814 499.7,636.6 651.7,613.8 "/>
<polygon class="st9" points="651.7,614.2 651.6,614.2 499.7,636.6 363.2,627.2 530.4,599 651.6,613.1 651.7,613.8 "/>
<polygon class="st2" points="829.4,789.7 674.1,821.4 670.5,821.1 533.9,807.3 533.9,634.3 701.1,606 822.3,620.1 822.4,620.9 
	822.4,621.2 "/>
<polygon class="st5" points="829.4,789.7 674.1,821.4 670.5,821.1 670.5,643.7 822.4,620.9 "/>
<polygon class="st9" points="822.4,621.2 822.3,621.3 670.5,643.7 533.9,634.3 701.1,606 822.3,620.1 822.4,620.9 "/>
<polygon class="st2" points="722.2,620.1 566.9,651.9 563.4,651.6 426.8,637.8 426.8,464.7 593.9,436.5 715.2,450.6 715.2,451.3 
	715.2,451.7 "/>
<polygon class="st5" points="722.2,620.1 566.9,651.9 563.4,651.6 563.4,474.2 715.2,451.3 "/>
<polygon class="st9" points="715.2,451.7 715.2,451.7 563.4,474.2 426.8,464.7 593.9,436.5 715.2,450.6 715.2,451.3 "/>
<polygon class="st2" points="810.6,627.4 729.5,644 727.6,643.8 656.3,636.6 656.3,546.3 743.6,531.5 806.9,538.9 806.9,539.3 
	806.9,539.5 "/>
<polygon class="st5" points="810.6,627.4 729.5,644 727.6,643.8 727.6,551.2 806.9,539.3 "/>
<polygon class="st9" points="806.9,539.5 806.9,539.6 727.6,551.2 656.3,546.3 743.6,531.5 806.9,538.9 806.9,539.3 "/>
<polygon class="st2" points="592.8,451.9 511.7,468.5 509.8,468.4 438.6,461.2 438.6,370.9 525.8,356.1 589.1,363.5 589.1,363.9 
	589.1,364.1 "/>
<polygon class="st5" points="592.8,451.9 511.7,468.5 509.8,468.4 509.8,375.7 589.1,363.9 "/>
<polygon class="st9" points="589.1,364.1 589.1,364.1 509.8,375.7 438.6,370.9 525.8,356.1 589.1,363.5 589.1,363.9 "/>
<polygon class="st8" points="735.2,448.4 654.1,465 652.3,464.8 581,457.6 581,367.3 668.3,352.6 731.5,360 731.6,360.4 
	731.6,360.5 "/>
<polygon class="st5" points="735.2,448.4 654.1,465 652.3,464.8 652.3,372.2 731.6,360.4 "/>
<polygon class="st9" points="731.6,360.5 731.5,360.6 652.3,372.2 581,367.3 668.3,352.6 731.5,360 731.6,360.4 "/>
<polygon class="st2" points="777.7,357.8 696.5,374.4 694.7,374.2 623.4,367 623.4,276.7 710.6,261.9 773.9,269.3 773.9,269.7 
	773.9,269.9 "/>
<polygon class="st5" points="777.7,357.8 696.5,374.4 694.7,374.2 694.7,281.6 773.9,269.7 "/>
<polygon class="st9" points="773.9,269.9 773.9,269.9 694.7,281.6 623.4,276.7 710.6,261.9 773.9,269.3 773.9,269.7 "/>
<path class="st10" d="M832.8,173.1c-0.8,7.6-6.7,13.8-8.9,21.2c-3.3,11.1,2.4,23.1,10.1,31.8c12.6,14,30.2,22.3,49,23.3
	c2.8,0.2,5.5-0.1,8.1-0.9c2.4-0.9,4.4-2.4,6.2-4.2c5.8-5.9,9-13.9,10.2-22s0.7-16.4,0.3-24.6c0-1.6-0.3-3.4-0.9-4.9
	c-0.8-1.5-1.9-2.9-3.2-3.9c-4.2-3.8-8.8-7.2-13.7-10c-2.2-1.1-4.4-2.4-5.8-4.4c-0.9-1.6-1.5-3.4-1.8-5.3l-1.5-7.7
	c-0.3-2.3-1-4.3-2.3-6.3c-2.7-3.6-7.8-4.1-12.3-4.3l-16.5-0.6c-5.1-0.2-11.8-1.6-16.9-0.6c-4.7,0.9-3.1,5.3-2.3,9.2
	C832,163.4,832.7,168.2,832.8,173.1z"/>
<path class="st5" d="M832.8,173.1c-0.8,7.6-6.7,13.8-8.9,21.2c-3.3,11.1,2.4,23.1,10.1,31.8c12.6,14,30.2,22.3,49,23.3
	c2.8,0.2,5.5-0.1,8.1-0.9c2.4-0.9,4.4-2.4,6.2-4.2c5.8-5.9,9-13.9,10.2-22s0.7-16.4,0.3-24.6c0-1.6-0.3-3.4-0.9-4.9
	c-0.8-1.5-1.9-2.9-3.2-3.9c-4.2-3.8-8.8-7.2-13.7-10c-2.2-1.1-4.4-2.4-5.8-4.4c-0.9-1.6-1.5-3.4-1.8-5.3l-1.5-7.7
	c-0.3-2.3-1-4.3-2.3-6.3c-2.7-3.6-7.8-4.1-12.3-4.3l-16.5-0.6c-5.1-0.2-11.8-1.6-16.9-0.6c-4.7,0.9-3.1,5.3-2.3,9.2
	C832,163.4,832.7,168.2,832.8,173.1z"/>
<path class="st11" d="M937.6,517.8l-7,76.7c-1.9,20.1-3.7,40.3-7.3,60.1c-1.1,6.8-2.7,13.7-4.4,20.4c-4.7,18.7-11.7,37.1-13.9,56.2
	c-0.1,0.5-0.1,1.1-0.2,1.6c-0.4,4.2-0.8,8.5-2.4,12.5c-1.1,2.9-2.9,5.6-4,8.5c-2.4,5.8-2.8,12.2-3,18.4c-8.4-4.8-17.8-8-27.4-9.4
	c-4.7-0.7-9.8-1.1-13-4.7c-3.5-3.8-3.1-9.7-2.6-14.8c1.9-16,3.7-32,5.6-48c0.6-6.9,1.8-13.7,3.5-20.4c0.6-2.3,1.4-4.4,2.2-6.6
	c1-3,2.2-6.1,3-9.2c1.1-4.9,2-10,2.4-15.1c1.9-16.1,4.2-32.1,6.2-48.3l0.1-0.8c3-24.4,5.3-48.9,4.6-73.5c-0.1-3.6-0.2-7.3-0.5-10.9
	c-0.3-5.3-0.8-8.1,3.5-11.4c4.8-3.6,11.2-6.2,16.8-8.5c3-1.3,35.7-13,36.5-10.4c1.5,5.5,2.3,11.1,2.4,16.8
	C938.6,503.9,938.3,510.8,937.6,517.8z"/>
<path class="st5" d="M923.3,654.6c-1.1,6.8-2.7,13.7-4.4,20.4c-4.7,18.7-11.7,37.1-13.9,56.2c-0.1,0.5-0.1,1.1-0.2,1.6
	c-14.6-20.9-27-43.4-41.2-64.5c1-3,2.2-6.1,3-9.2c1.1-5,2-10.1,2.5-15.2c1.9-16.1,4.2-32.1,6.2-48.3l0.1-0.8
	c0.8,3.4,2.1,6.7,3.5,9.9c9.6,19.5,32.3,29.3,43.5,48C922.6,653.5,922.9,654.1,923.3,654.6z"/>
<path class="st11" d="M804.6,483.4c0.5,15.7,3,31.1,5.5,46.5l5.1,31.8c2.8,17.4,5.8,35.2,14,50.8c6.2,11.6,15,21.6,23.1,32.1
	c19.8,25.7,34.6,54.9,53.3,81.4c5.5,7.7,13.3,16.1,22.6,14.4c6.1-1,10.5-6.2,15.3-10.1c5.7-4.6,12.5-8,16.9-13.8
	c4.4-5.8,5.4-15.4-0.7-19.6c-2.1-1.4-4.5-2-6.9-2.8c-9.4-3.5-15.3-12.7-19.3-21.9c-3.8-9.3-6.2-19.2-11.3-27.7
	c-11.1-18.6-33.9-28.5-43.5-48c-5.4-10.9-5.9-23.6-6.3-35.6l-1-31c-0.1-3.4-0.2-6.9,1.1-10c3.7-8.2,14.7-9.1,23.7-10.1
	c10.2-1.2,20.1-4.3,29-9.2c5.1-2.8,10.2-6.4,13-11.5c2.5-4.7,2.9-10.3,3.2-15.5l3.1-56.1c0.3-4.8,0.5-9.8-1.1-14.3
	c-4.3-11.3-18.6-15.1-30.8-14.5c-22.6,1-43.5,10.7-64.8,17.3c-5.3,1.6-10.6,3.1-16.1,4.2c-4.7,0.9-10.6,0.5-15.1,2.1
	c-8.1,2.8-7.9,20.5-9.1,27.8C805.2,454.4,804.3,468.9,804.6,483.4z"/>
<path class="st12" d="M925.1,742.8c2,2.1,2.7,4.9,3.2,7.7c2.9,15.4,4.3,31.1,4.4,46.8c-0.1,1.4,0.2,2.9,0.8,4.2
	c0.5,0.8,1.3,1.3,2.2,1.8c5.8,2.8,12.5-1.1,17.2-5.3c8.9-7.8,16.4-18.2,16.9-30.1c0.1-3-0.2-6.1,0.3-9.1c0.8-4.4,3.4-8.3,5.7-12.3
	c3.9-6.6,7.1-13.7,9.4-21c0.8-2.8,1.4-6.2-0.7-8.1c-0.7-0.6-1.6-1-2.6-1.3l-26.1-9.7c-2.3-0.8-7.8,13.6-8.8,15.1
	c-2.2,3.8-4.3,6.1-8.8,6.9c-4.3,0.9-9.8-0.4-13.9,1.9C917.6,734.2,921.1,738.8,925.1,742.8z"/>
<path class="st12" d="M885.1,751.7c-0.5-0.9-1.1-1.9-2-2.5c-1.2-0.7-2.6-1.2-4-1.3c-4.9-0.8-10.8-1.4-14.2,2.3
	c-3.2,3.4-2.7,9.1-5.4,13c-0.8,1.1-2,2.3-2.8,3.5c-0.9,2-1.3,4.1-1.1,6.4c-0.1,6-0.3,12,0.1,18c0.3,5,1.1,10.3,4.3,14.2
	c5,6.3,14.1,7.2,22.1,7.6l6.5,0.3c1.8,0.2,3.6,0,5.4-0.5c2.2-1,3.8-2.8,4.6-5c3.4-8.4-2-17.5-5.3-26.1
	C889.6,771.8,890.3,760.9,885.1,751.7z"/>
<path class="st2" d="M831,129.9c-0.1-0.8,0-1.8,0.4-2.5c0.9-1.6,3.4-1.1,5.4-0.7c7.6,2,15.5,0.2,23.4,0.6c7.8,0.4,16.6,4.3,18.1,12
	c5.7-4,10.5-9.1,14.4-14.8c2.2-3.2,4-6.9,3.7-10.8c-0.4-5.6-5.1-9.8-9.4-13.4l-13-10.6c-1.8-1.5-3.7-2.8-5.8-3.7
	c-3-1-6.3-0.5-9.4-0.5c-9.4,0-19.6-4.3-27.9,0c-3.5,1.8-6.2,4.9-8.6,7.9l-11.7,13.7c-0.9,0.8-1.5,2-1.9,3.2c-0.3,1.6,0.5,3.3,0.8,5
	c0.5,3.1-0.8,6.4,0.2,9.3c1.6,4.8,7.6,5.6,11.2,8.3c1.3,1,3.5,4.5,5,4.5C828.9,137.4,830.9,132.2,831,129.9z"/>
<circle class="st10" cx="850.7" cy="133.3" r="37.1"/>
<path class="st2" d="M859.3,214.5c-2.6-7.4-9.6-12.3-17.4-12c-1.1,0.2-2.3,0.1-3.2-0.4c-0.6-0.4-1-1-1.3-1.6c-2.3-4-4-8.3-5.4-12.8
	c-0.6-2-1.4-4.3-3.4-4.8c-1.6-0.4-3.2,0.6-4.3,1.9c-0.9,1.3-2,2.7-3.1,3.9c-4.7,4.1-13,0.4-17.9,4.2c-0.8,0.6-1.4,1.4-2.4,2
	c-0.8,0.5-1.8,0.9-2.7,1.1c-9.6,3.1-18.9,6.8-28.1,11c3.3,19.9,6.7,40.1,14.4,58.6c3.7,8.9,7.8,17.5,10.8,26.6
	c6.5,20.2,6.8,41.7,6.9,62.9c0,14.5,0,29.3-4.7,43c-1,3.1-2.4,6.2-2.7,9.4c-0.3,3.2,0.7,6.9,3.3,8.9c1.5,1,3.3,1.6,5.1,1.8
	c8.1,1.1,16.4-0.9,24.3-2.8c21.4-4.9,43.4-7.8,65.2-10.6l36.7-4.7c2.7-0.2,5.1-0.8,7.6-2c6.7-3.7,7.3-13.7,3.2-20.2
	c-2-3.1-4.8-5.6-6.5-8.9c-1.6-3.3-1.9-7.8,1-10.1c5.9-4.6,4.1-13.1,4.4-20.6c0.8-20.8,0.7-41.6-0.3-62.4c-0.3-4.3-0.4-8.6-0.2-13
	c0.4-7.3,2.3-14.5,4-21.6l11.1-43.8c-2.9-4.6-8.4-7.5-13.7-8.9s-10.8-1.8-16-3.3c-10.6-3.3-20.1-11.6-31.2-10.9
	c-0.8,0-1.6,0.2-2.5,0.6c-2.5,1.4-2.1,5-2.3,7.9c-0.3,6.4-5,11.6-10.2,15.4c-5.1,3.7-11,6.5-15.9,10.7
	C860.4,210.5,859.4,212.4,859.3,214.5z"/>
<path class="st10" d="M712.4,256c-2.5,1.6-5,3-7.8,4c-2.6,1-5.4,1.9-7.5,3.6c-1,0.9-2,2-2.6,3.2c-3.9,6.9-1.4,15.5,5.5,19.5
	c2.4,1.3,5,2,7.7,1.9c3.4-0.2,6.6-1.5,9.8-2.9l26.2-11.4c4.4-2,9.2-4.1,11.3-8.5c0.2-0.4,0.3-0.9,0.3-1.3c-0.2-0.5-0.6-0.9-1.1-1.1
	c-5.9-3.8-11-8.6-15.2-14.3c-1-1.4-2.4-4.9-3.9-5.8C729.4,239.6,716.8,253.1,712.4,256z"/>
<path class="st10" d="M992,246.8l9.7,11c2.1,2.4,4.1,4.7,6.1,7.2c4.6,6.4,8.3,13.4,11,20.8c2.1,5.5,3.8,11.3,3.1,17.2
	c-0.5,3-1.3,6-2.4,8.8c-1.8,5.5-3.9,10.7-6.6,15.8c-2.2,3.8-4.6,7.5-7.3,11c-7.5,9.9-15.7,19.3-24.4,28c-3.3,3.3-4.7,8.5-6.1,13
	c-2.7,8.1-9,14.5-15,20.5c-2,2.1-4.1,3.9-6.5,5.6c-3.5,2.3-7.6,3.4-11.7,3.3c-1.9,0-3.6-0.4-5.3-1.1c-4.1-2-6.3-6.8-6.7-11.4
	c-0.4-4.2,0.3-8.3,2.1-12.2c5.6-12.3,19.8-17.6,29.8-26.5c5.9-5.3,10.4-11.8,14.8-18.3c3-4.1,5.6-8.4,7.5-13.2
	c2.3-6,1.3-13.1,3.3-19.2c0.8-2.6,2.4-4.9,3.2-7.4c0.8-2.6,1.1-5.6-0.4-7.8c-1.1-1.4-2.7-2.5-4.3-3.2c-6.4-3.3-13.6-7.4-14.8-14.5
	c-0.5-3.9,0.5-7.9,2.9-11.1s5-6,8.1-8.4C984.4,252,989.2,249.2,992,246.8z"/>
<path class="st10" d="M706.2,271.4c-1.6-3.4-3.8-6.9-7.3-8.6c-3.4-1.4-7.2-1.4-10.6,0c-3.3,1.4-6.5,3.3-9.3,5.6l-8.3,6.2
	c-1.9,1.2-3.5,2.8-4.9,4.5c-1.3,2.2-2.2,4.5-2.6,7.1c-1.1,5.8-2.2,11.6-1.3,17.4c1.3,9.4,7,17.6,13.2,24.7c3.9,4.4,8.6,9,14.6,9.2
	c2.6,0.1,5.4-0.9,6.5-3.3c0.4-0.9,0.5-1.9,0.6-2.9c0.6-10.5-3.1-20.7-7.4-30.2c-1.1-2.6-2.5-5.3-2.4-8.1c0-0.5,0.1-0.9,0.3-1.3
	c0.4-0.4,0.8-0.6,1.4-0.7c6-1.1,16.3,3.5,20.4-3.2C711.8,283.4,708.1,275.2,706.2,271.4z"/>
<path class="st2" d="M829,118.3c-0.1-0.8,0.1-1.8,0.4-2.5c0.9-1.6,3.4-1.1,5.4-0.7c7.6,2,15.5,0.2,23.4,0.6s16.6,4.3,18.1,12
	c5.7-4,10.5-9.1,14.4-14.8c2.2-3.3,4-7,3.7-10.8c-0.4-5.6-5.1-9.8-9.4-13.4l-13-10.6c-1.8-1.5-3.7-2.8-5.8-3.7c-3-1-6.3-0.5-9.4-0.5
	c-9.4,0-19.6-4.3-27.9,0c-3.5,1.8-6.2,4.9-8.6,7.9l-11.6,13.7c-0.8,0.9-1.5,2-1.9,3.2c-0.3,1.6,0.5,3.3,0.8,5
	c0.5,3.1-0.8,6.4,0.2,9.3c1.6,4.8,7.6,5.6,11.2,8.3c1.3,1,3.5,4.5,5,4.5C827,125.7,828.9,120.6,829,118.3z"/>
<path class="st2" d="M750.3,219.9c-1.5,0.9-2.8,2.2-3.9,3.6c-1.3,2.1-1.6,4.7-2.8,6.8c-2.5,4.6-8.3,6.3-11.9,10.1
	c-0.6,0.5-1,1.2-1.1,2c0,1,0.3,2.1,0.9,2.9L749,273c5.9,0.5,11.4-3.2,17.3-2.7c2.2,0.2,4.4,0.9,6.5,0.3c1.5-0.6,2.9-1.5,4.2-2.6
	c3.5-2.2,8.1-2.5,11.1-5.4c2.9-2.9,3.2-7.2,3.2-11.1c0.1-3.4-0.3-6.9-1-10.2c-2.6-10.6-10.7-18.7-15.8-28.1
	c-2.5-4.5-3.8-7.2-9.1-4.1C760,212.1,755.2,216.3,750.3,219.9z"/>
<path class="st2" d="M963.8,205.9c3.3,2.2,6.3,4.7,8.9,7.7c2.7,3.4,4.2,7.7,6.8,11.2c2.6,3.5,5.9,6.1,8.8,9.3
	c4.3,4.7,7.2,10.6,10.1,16.4c-7,9.1-14.6,17.6-22.8,25.6c-0.9,1-2.2,1.9-3.5,2.3c-1.9,0.2-3.7-0.5-4.8-2c-1.2-1.3-2.2-3-3.4-4.3
	c-2.9-3-6.7-4.7-10.7-5.1c-4-0.4-8.1-0.4-12.2-0.2c-0.9,0.1-1.8,0-2.6-0.4c-0.6-0.4-1.1-0.9-1.4-1.6c-4.7-8.1-3.2-18.2-1.5-27.5
	l3.8-21.2c0.5-4,1.6-8,3.2-11.7c1.4-3.1,4.7-8.4,8.8-7.5S960.4,203.5,963.8,205.9z"/>
<polygon class="st8" points="628.1,361.3 547,377.9 545.1,377.7 473.9,370.5 473.9,280.2 561.1,265.4 624.4,272.9 624.4,273.3 
	624.4,273.4 "/>
<polygon class="st5" points="628.1,361.3 547,377.9 545.1,377.7 545.1,285.1 624.4,273.3 "/>
<polygon class="st9" points="624.4,273.4 624.4,273.5 545.1,285.1 473.9,280.2 561.1,265.4 624.4,272.9 624.4,273.3 "/>
<polygon class="st2" points="670.5,271.8 589.4,288.4 587.6,288.2 516.3,281 516.3,190.7 603.5,176 666.8,183.4 666.8,183.8 
	666.8,183.9 "/>
<polygon class="st5" points="670.5,271.8 589.4,288.4 587.6,288.2 587.6,195.6 666.8,183.8 "/>
<polygon class="st9" points="666.8,183.9 666.8,184 587.6,195.6 516.3,190.7 603.5,176 666.8,183.4 666.8,183.8 "/>
</svg>
