<?xml version="1.0" encoding="UTF-8"?>
<svg width="47px" height="44px" viewBox="0 0 47 44" version="1.1" xmlns="http://www.w3.org/2000/svg" xmlns:xlink="http://www.w3.org/1999/xlink">
    <!-- Generator: Sketch 51.3 (57544) - http://www.bohemiancoding.com/sketch -->
    <title>Group 9</title>
    <desc>Created with Sketch.</desc>
    <defs></defs>
    <g id="Landing-page" stroke="none" stroke-width="1" fill="none" fill-rule="evenodd">
        <g id="Desktop-HD-Copy-13" transform="translate(-152.000000, -1964.000000)" fill="#FC5858">
            <g id="Group-9" transform="translate(152.000000, 1964.000000)">
                <path d="M26.6099538,30.4764269 L10.3823,30.4764269 L10.5630692,5.77250385 C10.5775308,4.80719615 11.3765308,4.01904231 12.3436462,4.01904231 L35.2290308,4.01904231 C35.0066846,4.64992692 34.8909923,5.30973462 34.8873769,5.99123462 L34.8873769,35.9935038 C34.8873769,37.8500038 33.3743385,39.3630423 31.5160308,39.3630423 C29.6577231,39.3630423 28.1464923,37.8500038 28.1464923,35.9935038 L28.1464923,32.0129654 C28.1464923,31.1651577 27.4577615,30.4764269 26.6099538,30.4764269 M24.9776077,39.2925423 L7.36706923,39.2925423 C5.54310769,39.2925423 4.04272308,37.8084269 4.02103077,35.9862731 L4.02103077,34.4967346 L24.1731846,34.4967346 L24.1731846,35.9483115 C24.1749923,37.1142731 24.4515692,38.2621577 24.9776077,39.2925423 M42.9442615,6.09427308 L42.9442615,10.3315038 L38.9510692,10.3315038 L38.9438385,6.17019615 C39.0053,5.63692692 39.2764538,5.15608077 39.7084923,4.81804231 C40.1333,4.48181154 40.6557231,4.32273462 41.1799538,4.39504231 C42.0819923,4.49988846 42.8050692,5.19765769 42.9442615,6.09427308 M40.9232615,0.000542307692 L12.3436462,0.000542307692 C9.17837692,0.000542307692 6.5753,2.57469615 6.54095385,5.73996538 L6.36199231,30.4764269 L1.53726154,30.4764269 C0.689453846,30.4764269 0.000723076923,31.1651577 0.000723076923,32.0129654 L0.000723076923,35.93385 C-0.0354307692,39.9342731 3.09187692,43.1971577 7.13026154,43.35985 L31.5883385,43.35985 C33.5352231,43.35985 35.3682231,42.6096577 36.7547231,41.24485 C38.1556846,39.8619654 38.9366077,37.9982346 38.9528769,35.9935038 L38.9528769,14.3518115 L45.4280308,14.3518115 C46.2740308,14.3518115 46.9627615,13.6630808 46.9627615,12.8152731 L46.9627615,5.97496538 C46.9302231,2.67954231 44.2204923,0.000542307692 40.9232615,0.000542307692" id="Fill-1"></path>
                <path d="M13.9552038,13.7429808 L22.2488962,13.7429808 C23.0967038,13.7429808 23.7854346,13.05425 23.7854346,12.2064423 L23.7854346,11.2592115 C23.7854346,10.4114038 23.0967038,9.72267308 22.2488962,9.72267308 L13.9552038,9.72267308 C13.1073962,9.72267308 12.4186654,10.4114038 12.4186654,11.2592115 L12.4186654,12.2064423 C12.4186654,13.05425 13.1073962,13.7429808 13.9552038,13.7429808" id="Fill-3"></path>
                <path d="M13.9552038,19.4308846 L30.7812038,19.4308846 C31.6272038,19.4308846 32.3159346,18.7421538 32.3159346,17.8943462 L32.3159346,16.9471154 C32.3159346,16.0993077 31.6272038,15.4105769 30.7812038,15.4105769 L13.9552038,15.4105769 C13.1073962,15.4105769 12.4186654,16.0993077 12.4186654,16.9471154 L12.4186654,17.8943462 C12.4186654,18.7421538 13.1073962,19.4308846 13.9552038,19.4308846" id="Fill-5"></path>
                <path d="M32.3162962,23.5829731 L32.3162962,22.6357423 C32.3162962,21.7879346 31.6275654,21.0992038 30.7797577,21.0992038 L13.9555654,21.0992038 C13.1077577,21.0992038 12.4190269,21.7879346 12.4190269,22.6357423 L12.4190269,23.5829731 C12.4190269,24.4307808 13.1077577,25.1195115 13.9555654,25.1195115 L30.7797577,25.1195115 C31.6275654,25.1195115 32.3162962,24.4307808 32.3162962,23.5829731" id="Fill-7"></path>
            </g>
        </g>
    </g>
</svg>