<?xml version="1.0" encoding="UTF-8"?>
<svg width="38px" height="58px" viewBox="0 0 38 58" version="1.1" xmlns="http://www.w3.org/2000/svg" xmlns:xlink="http://www.w3.org/1999/xlink">
    <!-- Generator: Sketch 51.3 (57544) - http://www.bohemiancoding.com/sketch -->
    <title>Group 5</title>
    <desc>Created with Sketch.</desc>
    <defs></defs>
    <g id="Landing-page" stroke="none" stroke-width="1" fill="none" fill-rule="evenodd">
        <g id="Desktop-HD-Copy-13" transform="translate(-157.000000, -1680.000000)" fill="#FC5858">
            <g id="Group-5" transform="translate(157.000000, 1680.000000)">
                <path d="M23.883,4.9088 C23.965,5.1188 24.083,6.2688 23.003,8.2688 C21.883,10.3508 21.343,12.5368 21.355,14.9508 C21.243,14.9748 21.131,14.9988 21.017,15.0188 L20.745,15.0708 C20.519,15.1068 20.285,15.1368 20.027,15.1628 L19.927,15.1728 L19.947,15.3808 L19.881,15.1808 L19.803,15.1868 C19.309,15.2268 18.681,15.2528 17.801,15.1708 C17.517,15.1448 17.223,15.1048 16.931,15.0528 L16.833,15.0368 L16.789,15.2908 L16.771,15.0208 L16.695,15.0068 C16.461,14.9588 16.233,14.9068 16.019,14.8528 L16.005,14.8468 C15.551,13.1868 14.577,11.4788 13.547,9.6708 C13.223,9.1068 12.907,8.5508 12.607,7.9948 C11.461,5.8668 11.329,4.4508 11.791,4.1968 C12.311,3.9028 14.047,5.3308 14.617,5.8008 L14.993,6.1068 C16.615,7.4148 18.897,8.5608 22.173,5.8148 C23.485,4.7168 23.585,4.7268 23.883,4.9088 M13.357,18.3688 L13.527,18.4088 C13.733,18.4868 13.945,18.5508 14.163,18.6168 L14.259,18.6468 L14.399,18.1808 L14.415,18.6968 L14.799,18.8208 C16.619,19.3248 18.517,19.4828 20.429,19.2888 C21.757,19.1568 23.019,18.8668 24.401,18.3728 C24.445,18.3808 24.581,18.4168 24.581,18.5728 C24.581,18.6328 24.549,18.6848 24.509,18.7168 L22.857,19.3628 C20.295,20.3208 17.477,20.3248 14.919,19.3648 L13.313,18.7548 C13.241,18.7268 13.187,18.6508 13.187,18.5728 C13.187,18.3948 13.365,18.3728 13.357,18.3688 M32.645,48.3208 L32.633,48.3428 L32.633,48.3448 C30.747,51.4548 26.121,53.0308 18.883,53.0308 C11.633,53.0308 7.005,51.4488 5.125,48.3268 C2.625,44.1708 5.699,38.1668 5.729,38.1088 L5.747,38.0768 C6.259,37.1568 10.823,28.9348 13.669,23.3188 C17.037,24.5228 20.733,24.5268 24.099,23.3188 C26.945,28.9368 31.497,37.1348 32.017,38.0708 C32.049,38.1308 35.131,44.1788 32.645,48.3208 M35.667,36.1088 L35.653,36.0848 C35.603,35.9968 30.693,27.1828 27.733,21.3248 C28.371,20.5408 28.721,19.5688 28.721,18.5728 C28.721,16.6028 27.405,14.8908 25.507,14.3788 C25.571,12.8808 25.935,11.5628 26.649,10.2348 C28.931,6.0028 28.151,2.8568 26.365,1.6168 C23.279,-0.5212 20.905,1.4728 19.487,2.6628 C18.425,3.5568 18.393,3.5268 17.599,2.8868 L17.243,2.5968 C15.571,1.2248 12.773,-1.0732 9.791,0.5708 C8.723,1.1548 5.509,3.5588 8.965,9.9648 C9.269,10.5268 9.595,11.1028 9.913,11.6588 L9.953,11.7308 C10.515,12.7188 11.099,13.7408 11.523,14.6628 C10.013,15.3788 9.045,16.9028 9.045,18.5728 C9.045,19.5748 9.397,20.5448 10.037,21.3188 C7.203,26.9248 2.617,35.1808 2.093,36.1228 C1.919,36.4508 -2.167,44.2248 1.571,50.4508 C4.247,54.9108 10.071,57.1728 18.883,57.1728 C27.697,57.1728 33.521,54.9108 36.197,50.4508 C39.909,44.2668 35.841,36.4388 35.667,36.1088" id="Fill-1"></path>
                <path d="M18.0334,35.8766 C19.5274,34.7966 21.0614,36.4046 21.2314,36.5906 C21.5994,37.0026 22.1074,37.2486 22.6594,37.2786 C23.2054,37.3046 23.7474,37.1206 24.1554,36.7546 C24.5694,36.3866 24.8134,35.8786 24.8434,35.3286 C24.8754,34.7746 24.6894,34.2446 24.3214,33.8326 C23.4534,32.8626 22.2014,32.0526 20.9534,31.6546 L20.9534,30.5046 C20.9534,29.3646 20.0254,28.4346 18.8834,28.4346 C17.7414,28.4346 16.8134,29.3646 16.8134,30.5046 L16.8134,31.8266 C16.3874,32.0126 15.9794,32.2486 15.5974,32.5286 C13.9514,33.7286 13.2434,35.5386 13.7034,37.3706 C14.2334,39.4566 16.1554,40.9646 18.7214,41.3086 C19.7774,41.4186 20.2194,41.7726 20.2594,41.9166 C20.2794,41.9906 20.1954,42.2906 19.7494,42.6126 C18.2554,43.6906 16.7174,42.0786 16.5474,41.8926 C15.7874,41.0506 14.4754,40.9786 13.6274,41.7346 C13.2134,42.1026 12.9694,42.6106 12.9414,43.1646 C12.9094,43.7166 13.0954,44.2486 13.4634,44.6586 C14.3254,45.6226 15.5734,46.4306 16.8134,46.8326 L16.8134,47.9846 C16.8134,49.1266 17.7414,50.0546 18.8834,50.0546 C20.0254,50.0546 20.9534,49.1266 20.9534,47.9846 L20.9534,46.6626 C21.3834,46.4806 21.7974,46.2446 22.1874,45.9606 C23.9694,44.6666 24.7614,42.7006 24.2574,40.8346 C23.7114,38.8186 21.7894,37.4546 19.1234,37.1866 C18.1434,37.0446 17.7774,36.5806 17.7194,36.3506 C17.6774,36.1806 17.8674,36.0006 18.0334,35.8766" id="Fill-3"></path>
            </g>
        </g>
    </g>
</svg>